<svg id="Capa_1" enable-background="new 0 0 512 512" height="512" viewBox="0 0 512 512" width="512" xmlns="http://www.w3.org/2000/svg"><g><path d="m119.894 206.59c-3.927-1.202-8.077 1.011-9.276 4.934-4.387 14.359-6.612 29.323-6.612 44.475 0 83.81 68.184 151.994 151.994 151.994s151.994-68.183 151.994-151.993-68.184-151.994-151.994-151.994c-26.69 0-52.946 7.018-75.929 20.296-22.29 12.878-41.093 31.345-54.375 53.406-2.116 3.515-.982 8.08 2.532 10.196 3.516 2.116 8.079.982 10.196-2.532 25.073-41.645 69.026-66.507 117.575-66.507 75.617 0 137.136 61.519 137.136 137.136 0 75.618-61.519 137.136-137.136 137.136s-137.135-61.52-137.135-137.137c0-13.679 2.007-27.183 5.964-40.134 1.199-3.924-1.01-8.077-4.934-9.276z"/><path d="m52.341 313c-5.154-18.459-7.767-37.636-7.767-57 0-116.58 94.845-211.426 211.426-211.426 51.335 0 99.629 18.007 137.857 51.065h-16.352c-6.827 0-12.382 5.554-12.382 12.382v19.811c0 6.827 5.554 12.382 12.382 12.382h79.572c7.373 0 13.372-5.999 13.372-13.372v-79.574c0-6.827-5.554-12.382-12.382-12.382h-19.811c-6.827 0-12.382 5.554-12.382 12.382v17.166c-7.81-6.951-16.036-13.42-24.585-19.33-3.376-2.333-8.003-1.488-10.336 1.886-2.333 3.375-1.489 8.003 1.886 10.336 12.569 8.689 24.398 18.663 35.158 29.645 2.113 2.156 5.32 2.819 8.114 1.679 2.795-1.141 4.621-3.86 4.621-6.878v-32.027h14.858v75.61h-75.61v-14.858h32.577c2.987 0 5.683-1.789 6.845-4.541 1.161-2.752.561-5.932-1.524-8.072-42.82-43.959-100.311-68.168-161.878-68.168-124.773 0-226.284 101.511-226.284 226.284 0 19.89 2.579 39.603 7.668 58.632l-14.226 4.315c-5.508-20.43-8.301-41.595-8.301-62.947 0-64.411 25.083-124.967 70.629-170.513s106.102-70.629 170.514-70.629c38.018 0 75.816 9.006 109.308 26.045 3.656 1.862 8.13.405 9.99-3.253 1.861-3.657.404-8.13-3.253-9.99-35.569-18.095-75.697-27.66-116.045-27.66-68.381 0-132.667 26.629-181.019 74.981s-74.981 112.639-74.981 181.019c0 23.555 3.203 46.899 9.519 69.383.91 3.239 3.034 5.912 5.983 7.528 2.95 1.618 6.35 1.961 9.543.991l18.962-5.751c6.386-1.938 10.125-8.734 8.334-15.151z"/><path d="m501.908 184.614c-.937-3.233-3.085-5.89-6.048-7.481-2.955-1.587-6.346-1.911-9.547-.912l-18.914 5.906c-6.371 1.99-10.054 8.815-8.21 15.215 5.754 19.975 8.518 40.762 8.214 61.783-.823 56.936-23.735 109.933-64.515 149.227-40.838 39.35-94.738 60.307-151.793 59.017-49.468-1.121-96.036-19.106-132.983-51.036h16.382c6.827 0 12.382-5.554 12.382-12.382v-19.811c0-6.827-5.554-12.382-12.382-12.382h-79.572c-7.373 0-13.372 5.999-13.372 13.372v15.671c0 4.103 3.326 7.429 7.429 7.429s7.429-3.326 7.429-7.429v-14.185h75.61v14.858h-32.61c-2.987 0-5.683 1.789-6.844 4.541s-.562 5.932 1.522 8.071c41.472 42.589 97.113 66.787 156.674 68.136 61.024 1.377 118.726-21.052 162.439-63.172 43.654-42.064 68.181-98.784 69.062-159.712.313-21.66-2.421-43.094-8.127-63.751l14.19-4.431c5.853 21.017 8.82 42.819 8.82 64.841 0 64.412-25.083 124.968-70.629 170.513s-106.103 70.632-170.515 70.632c-65.353 0-126.437-25.61-171.999-72.112-2.112-2.156-5.32-2.819-8.114-1.679-2.795 1.141-4.621 3.86-4.621 6.878v31.999h-14.858v-26.983c0-4.103-3.326-7.429-7.429-7.429s-7.429 3.326-7.429 7.429v29.459c0 6.827 5.554 12.382 12.382 12.382h19.811c6.827 0 12.382-5.554 12.382-12.382v-17.124c46.742 41.668 106.416 64.42 169.875 64.42 68.381 0 132.667-26.629 181.019-74.981s74.981-112.639 74.981-181.019c0-24.265-3.396-48.282-10.092-71.386z"/><path d="m233.713 189.811v33.912c-10.236 7.09-16.958 18.911-16.958 32.277 0 21.64 17.605 39.245 39.245 39.245 13.367 0 25.188-6.722 32.277-16.958h70.552c6.827 0 12.382-5.554 12.382-12.382v-19.811c0-6.827-5.554-12.382-12.382-12.382h-70.552c-2.702-3.901-6.09-7.289-9.99-9.99v-33.912c0-6.827-5.554-12.382-12.382-12.382h-19.811c-6.827.001-12.381 5.555-12.381 12.383zm22.287 90.576c-13.447 0-24.387-10.94-24.387-24.387s10.94-24.387 24.387-24.387 24.387 10.94 24.387 24.387-10.94 24.387-24.387 24.387zm100.353-31.816v14.858h-61.823c.463-2.407.715-4.889.715-7.429s-.251-5.022-.715-7.429zm-92.924-56.284v25.182c-2.407-.463-4.889-.715-7.429-.715s-5.022.251-7.429.715v-25.182z"/><ellipse cx="149.604" cy="257.907" rx="9.242" ry="9.242" transform="matrix(.383 -.924 .924 .383 -145.922 297.427)"/><circle cx="164.812" cy="310.849" r="9.242"/><ellipse cx="204.454" cy="349.095" rx="9.242" ry="9.242" transform="matrix(.834 -.552 .552 .834 -158.706 170.816)"/><circle cx="257.907" cy="362.396" r="9.242"/><circle cx="310.849" cy="347.188" r="9.242"/><path d="m341.091 302.925c-2.552 4.42-1.038 10.073 3.383 12.625 4.42 2.552 10.073 1.038 12.625-3.383 2.552-4.42 1.038-10.073-3.383-12.625-4.42-2.552-10.073-1.037-12.625 3.383z"/><ellipse cx="347.188" cy="201.15" rx="9.242" ry="9.242" transform="matrix(.816 -.579 .579 .816 -52.364 238.014)"/><path d="m315.55 167.526c2.552-4.42 1.038-10.072-3.383-12.625-4.42-2.552-10.072-1.038-12.625 3.383-2.552 4.42-1.038 10.072 3.383 12.625 4.421 2.552 10.073 1.037 12.625-3.383z"/><ellipse cx="254.093" cy="149.604" rx="9.242" ry="9.242" transform="matrix(.707 -.707 .707 .707 -31.364 223.489)"/><ellipse cx="201.151" cy="164.812" rx="9.242" ry="9.242" transform="matrix(.527 -.85 .85 .527 -44.873 249.055)"/><path d="m167.526 196.45c-4.42-2.552-10.073-1.038-12.625 3.383-2.552 4.42-1.038 10.073 3.383 12.625 4.42 2.552 10.073 1.038 12.625-3.383s1.037-10.073-3.383-12.625z"/></g></svg>