<svg id="Capa_1" enable-background="new 0 0 512 512" height="512" viewBox="0 0 512 512" width="512" xmlns="http://www.w3.org/2000/svg"><g><path d="m479.448 365.023-50.357-73.178c-1.442-2.095-2.203-4.547-2.203-7.088v-11.092c0-17.924-14.582-32.505-32.505-32.505h-45.106v-18.219h4.612c4.143 0 7.501-3.358 7.501-7.501s-3.358-7.501-7.501-7.501h-4.612v-18.671c11.417-1.073 20.381-10.708 20.381-22.4v-30.992c0-12.408-10.095-22.503-22.503-22.503h-30.769l-4.278-7.41c-3.394-5.878-5.187-12.572-5.187-19.36v-35.683c0-5.333-.822-10.59-2.445-15.628-1.27-3.942-5.494-6.11-9.439-4.84-3.943 1.27-6.11 5.496-4.84 9.44 1.143 3.548 1.722 7.259 1.722 11.028v35.682c0 9.383 2.472 18.637 7.147 26.771h-86.129c4.675-8.134 7.147-17.388 7.147-26.771v-35.682c0-19.805 16.113-35.917 35.917-35.917 5.731 0 11.205 1.307 16.27 3.885 3.69 1.878 8.208.411 10.087-3.282 1.88-3.692.41-8.208-3.282-10.087-7.092-3.611-15.071-5.519-23.076-5.519-28.077 0-50.92 22.842-50.92 50.92v35.682c0 6.788-1.794 13.482-5.187 19.36l-4.279 7.41h-30.769c-12.409 0-22.503 10.095-22.503 22.503v30.992c0 11.692 8.964 21.327 20.381 22.4v18.671h-4.613c-4.143 0-7.501 3.358-7.501 7.501s3.358 7.501 7.501 7.501h4.613v18.219h-45.106c-17.923 0-32.505 14.581-32.505 32.505v11.092c0 2.541-.762 4.993-2.203 7.087l-17.112 24.868c-2.348 3.413-1.486 8.083 1.927 10.432 3.411 2.347 8.082 1.486 10.431-1.927l17.114-24.869c3.17-4.608 4.845-10 4.845-15.591v-11.092c0-9.651 7.852-17.503 17.503-17.503h276.766c9.651 0 17.503 7.852 17.503 17.503v11.092c0 5.592 1.676 10.983 4.846 15.592l50.358 73.179c16.613 24.142 13.843 56.916-6.588 77.928l-40.602 41.755c-2.34 2.407-5.606 3.787-8.963 3.787h-94.49c-4.143 0-7.501 3.358-7.501 7.501s3.358 7.501 7.501 7.501h94.49c7.384 0 14.572-3.037 19.719-8.33l40.602-41.755c25.402-26.124 28.847-66.873 8.19-96.891zm-322.104-198.155v-30.992c0-4.136 3.365-7.501 7.501-7.501h182.309c4.136 0 7.501 3.365 7.501 7.501v30.992c0 4.136-3.365 7.501-7.501 7.501h-182.309c-4.136 0-7.501-3.365-7.501-7.501zm20.381 22.503h156.55v18.568h-156.55zm0 33.57h156.55v18.219h-156.55z"/><path d="m278.223 496.998h-177.16c-3.356 0-6.623-1.38-8.963-3.787l-40.602-41.755c-20.431-21.011-23.201-53.785-6.587-77.928l14.287-20.762c2.348-3.414 1.486-8.083-1.928-10.432s-8.083-1.487-10.432 1.927l-14.287 20.762c-20.656 30.018-17.212 70.767 8.191 96.891l40.601 41.755c5.147 5.294 12.335 8.33 19.719 8.33h177.159c4.143 0 7.501-3.358 7.501-7.501.002-4.142-3.357-7.5-7.499-7.5z"/><path d="m360.421 466.534c26.747 0 48.508-21.76 48.508-48.507v-66.866c0-26.747-21.761-48.507-48.508-48.507h-208.842c-26.747 0-48.508 21.76-48.508 48.507v66.866c0 26.747 21.761 48.507 48.508 48.507zm-242.348-48.507v-66.866c0-18.474 15.031-33.505 33.505-33.505h208.843c18.475 0 33.505 15.031 33.505 33.505v66.866c0 18.474-15.031 33.505-33.505 33.505h-208.842c-18.475 0-33.506-15.031-33.506-33.505z"/><path d="m217.635 423.839c4.143 0 7.501-3.358 7.501-7.501v-40.823l30.201 43.733c2.229 3.22 5.937 4.591 9.447 3.496 3.587-1.121 5.905-4.495 5.905-8.668l-.607-62.818c-.04-4.118-3.39-7.429-7.499-7.429-.024 0-.049 0-.074 0-4.143.04-7.468 3.431-7.428 7.573l.402 41.657-31.676-45.869c-1.866-2.701-5.272-3.874-8.405-2.899-3.134.977-5.269 3.879-5.269 7.161v64.887c.001 4.143 3.359 7.5 7.502 7.5z"/><path d="m311.747 423.839c4.143 0 7.501-3.358 7.501-7.501v-18.304l24.568 23.703c1.456 1.405 3.333 2.103 5.207 2.103 1.965 0 3.927-.768 5.399-2.293 2.876-2.981 2.791-7.73-.19-10.606l-29.465-28.427 27.025-24.841c3.05-2.803 3.25-7.548.447-10.598-2.804-3.05-7.549-3.25-10.599-.446l-22.393 20.583v-15.882c0-4.143-3.358-7.501-7.501-7.501s-7.501 3.358-7.501 7.501v65.009c0 4.143 3.359 7.5 7.502 7.5z"/><path d="m169.796 423.839c4.143 0 7.501-3.358 7.501-7.501v-65.008c0-4.143-3.358-7.501-7.501-7.501s-7.501 3.358-7.501 7.501v65.009c0 4.143 3.358 7.5 7.501 7.5z"/></g></svg>