<svg id="Layer_1" data-name="Layer 1" xmlns="http://www.w3.org/2000/svg" viewBox="0 0 469.38 114"><defs><style>.cls-1{fill:#d6d6d6;}</style></defs><title>logo</title><path class="cls-1" d="M401.22,554.25a1.82,1.82,0,0,1,.12.89,2.23,2.23,0,0,1-.12.65,2.58,2.58,0,0,1-.69.92.91.91,0,0,1-.5.35l-.57.19-.73.15a1.49,1.49,0,0,1-.81-.07c-.51-.11-.82-.26-.92-.46a7.2,7.2,0,0,1-.58-.5l-.57-.58a3.28,3.28,0,0,1-.5-.61,3.49,3.49,0,0,0-.5-.62q-.47-.62-1-1.23A8.8,8.8,0,0,1,393,552q-.37-.71-.69-1.35c-.2-.44-.41-.88-.61-1.34a26.12,26.12,0,0,1-1.23-2.69c-.31-1-.6-1.94-.89-2.88s-.55-1.91-.8-2.89a41.1,41.1,0,0,1-1.23-8.37,55.86,55.86,0,0,1,0-6.07q.15-3.08.54-6.15c.1-1,.23-2.06.38-3.11s.31-2.09.46-3.11c.15-.82.3-1.61.42-2.38s.27-1.54.43-2.31a15.23,15.23,0,0,1-.89,1.54,14.1,14.1,0,0,0-.88,1.54q-1.23,2-2.46,3.95t-2.69,4l-.34.31a6.69,6.69,0,0,0-.58.53,8.84,8.84,0,0,1,1-2l1.23-1.85c.2-.3.39-.61.57-.92s.35-.61.5-.92a8.69,8.69,0,0,0,.69-1.85c-.82.93-1.53,1.8-2.15,2.62q-1.68,2.54-3.3,4.68a24.18,24.18,0,0,1-1.84,2.23,16.46,16.46,0,0,1-2.23,2,4.81,4.81,0,0,1-.81.65,9.19,9.19,0,0,0-.81.58,7.6,7.6,0,0,1-.88.65,9.19,9.19,0,0,0-.81.58c-.36.2-.7.4-1,.57l-1,.5-1.16.47-.46.15a5.44,5.44,0,0,1-.61.15l-.54.08a1.32,1.32,0,0,1-.54.08,5.75,5.75,0,0,1-1.07-.08,4.38,4.38,0,0,1-1.92-.62,6.28,6.28,0,0,1-1.62-1.11,12.59,12.59,0,0,1-1.3-1.42,16.43,16.43,0,0,1-1.93-3.23.77.77,0,0,1-.07-.34,1.46,1.46,0,0,0-.08-.43l.23-.07.31.61c.1.21.2.41.31.62a11.42,11.42,0,0,0,1.15,2.07,10.79,10.79,0,0,0,1.46,1.77,7.6,7.6,0,0,0,2.38,1.38,6.08,6.08,0,0,0,2.92.23,9.13,9.13,0,0,0,3.15-1.07c.41-.26.86-.53,1.34-.81a8.22,8.22,0,0,0,1.35-1,26,26,0,0,0,3.92-3.84c1.12-1.39,2.2-2.82,3.23-4.31s2-3,2.84-4.45,1.74-3,2.61-4.54a5.17,5.17,0,0,1,.46-.84,4.26,4.26,0,0,0,.46-.85c.41-.87.82-1.71,1.23-2.53s.82-1.67,1.23-2.54l-.08-.07a5.28,5.28,0,0,0-.53.8l-.46.81q-1.94,3.54-4,7T381,517.68c-.46.61-.92,1.23-1.39,1.84s-.94,1.23-1.46,1.85l-1.53,1.69a22.38,22.38,0,0,1-1.62,1.61,18.22,18.22,0,0,1-1.76,1.42,12.46,12.46,0,0,1-1.92,1.12,9.1,9.1,0,0,1-2,.8,4.35,4.35,0,0,1-1.89.12,4.59,4.59,0,0,1-2.26-.69,9.2,9.2,0,0,1-1.81-1.54,6.56,6.56,0,0,1-.73-.88,12.14,12.14,0,0,1-.65-1,12.94,12.94,0,0,1-1.08-2.23c-.15-.31-.3-.6-.46-.88a2.87,2.87,0,0,1-.3-.88,12,12,0,0,0-.58-2.58,11.25,11.25,0,0,1-.58-2.5c-.1-.76-.22-1.54-.34-2.34s-.25-1.6-.35-2.42q-.15-2.31-.15-4.65c0-1.56,0-3.14.07-4.72l-1.07,3c0,.31,0,.62,0,.92s0,.59,0,.85a21.83,21.83,0,0,0,0,2.42c0,.8.06,1.58.11,2.34a38.86,38.86,0,0,0,.58,4.65,32.41,32.41,0,0,0,1.11,4.34,1.34,1.34,0,0,1,.16.54.27.27,0,0,1-.08.16l-.23.23c-.1-.26-.21-.53-.31-.81a5.55,5.55,0,0,1-.23-.81,11.68,11.68,0,0,1-.23-1.15,11.68,11.68,0,0,0-.23-1.15c-.15-.77-.3-1.55-.42-2.35s-.25-1.6-.35-2.42a39.88,39.88,0,0,1-.46-6.14c-.15.56-.32,1.1-.5,1.61l-.57,1.61-.24.7a22.29,22.29,0,0,0,.12,2.3c.08.77.17,1.51.27,2.23l-.15.08c-.11-.72-.18-1.43-.24-2.12s-.1-1.39-.15-2.11q-.07.22-.15.42c-.05.13-.11.27-.16.42a2.7,2.7,0,0,1,.08.62,2.55,2.55,0,0,0,.08.61h-.16a4.21,4.21,0,0,1-.07-.92c-.11.26-.21.54-.31.85s-.21.59-.31.84a2.47,2.47,0,0,1-.61,1,12,12,0,0,1,.3-1.92c.16-.61.34-1.23.54-1.84a5,5,0,0,1,.31-.93,4,4,0,0,1,0-.92c0-.31,0-.61,0-.92a15,15,0,0,0-.92,2,23.35,23.35,0,0,0-.92,2.42c-.26.79-.54,1.6-.85,2.42a21,21,0,0,0-.84,2.38c-.21.41-.4.82-.58,1.23s-.37.82-.58,1.23c-.25.56-.48,1.1-.69,1.61s-.43,1.05-.69,1.62-.47,1.3-.65,1.92a16.93,16.93,0,0,1-.66,1.84c-.25.62-.5,1.23-.73,1.84s-.47,1.23-.73,1.85c-.61,1.33-1.19,2.65-1.72,4s-1.09,2.62-1.66,3.95a1,1,0,0,0-.23.39,1,1,0,0,1-.23.38l-.23-.08.62-1.46c.41-.87.76-1.7,1.07-2.49s.67-1.63,1.08-2.5l.54-1.38.53-1.46,1.08-2.77,1-2.76,1.07-2.85,1.62-4.61,1.53-4.53q.46-1.15.81-2.31c.23-.76.47-1.53.73-2.3l1.23-3.69v-.46h.15l.08-.46a5.54,5.54,0,0,0,.35-.88,5.13,5.13,0,0,1,.27-.81l1.38-5.07a5.06,5.06,0,0,0-.39.77l-.3.76q-1.23,3.62-2.46,7.15c-.82,2.36-1.67,4.71-2.54,7.07-.51,1.38-1,2.75-1.46,4.11s-.92,2.7-1.38,4l-1.54,4-1.53,4.07-1.16,2.69-1.07,2.69-1.08,2.69q-.3.69-.57,1.38c-.18.46-.38.9-.58,1.31s-.21.72-.31,1.07a3.42,3.42,0,0,1-.54,1.08,12.26,12.26,0,0,0-1.3,2.65,18.63,18.63,0,0,1-1.15,2.65c-.41.87-.79,1.72-1.12,2.54s-.68,1.64-1,2.45c-.51,1-1,2-1.46,3s-.94,2-1.45,3c-.26.52-.5,1-.73,1.5l-.73,1.5-1.39,3a3.75,3.75,0,0,0-.46,1.38,4,4,0,0,1-.31.65,5.27,5.27,0,0,0-.3.66,9.94,9.94,0,0,1-.93,1.23,10.08,10.08,0,0,0-.92,1.23,5.64,5.64,0,0,0-.69,1.42,8,8,0,0,1-.61,1.42c-.52.77-1,1.52-1.5,2.26s-1,1.48-1.5,2.19l-.27.58c-.08.18-.16.37-.27.58l.23.07,1-1.69c.26-.41.5-.8.73-1.19a14,14,0,0,1,.81-1.19c.46-.66.89-1.33,1.3-2s.85-1.33,1.31-2,.82-1.4,1.23-2,.82-1.32,1.23-2a5,5,0,0,0,.54-.84,9.55,9.55,0,0,1,.46-.85l.23.08-1.08,1.84c-.15.31-.32.62-.5.93s-.37.61-.57.92a12,12,0,0,0-1,1.88c-.28.64-.6,1.29-1,2a1.32,1.32,0,0,1,.54.08c-.41.66-.82,1.29-1.23,1.88s-.82,1.19-1.23,1.81l-2.23,3.61c-.41.56-.82,1.14-1.23,1.73s-.82,1.16-1.23,1.72a5.83,5.83,0,0,0-.5.58,4.11,4.11,0,0,1-.42.5,2.11,2.11,0,0,1-.69.77l-.46.46c-.21.2-.44.41-.69.61a7.61,7.61,0,0,1-.93.77l-.46.16a2.43,2.43,0,0,1-.42.15,1.75,1.75,0,0,1-.42.08,1.11,1.11,0,0,1-.92-.31,1.06,1.06,0,0,1-.35-.35.8.8,0,0,1,0-.57,1.62,1.62,0,0,1,.12-.66c.07-.18.16-.45.27-.8a12,12,0,0,0,.49-1.16,1.55,1.55,0,0,1,.58-.84c.21-.31.44-.65.69-1s.52-.78.77-1.19.51-.72.77-1.07.51-.75.77-1.16a2.82,2.82,0,0,0,.69-1.07l.69-1.16c.21-.35.41-.71.62-1.07s.43-.74.69-1.15l1.23-2q.3-.54.57-1.08c.18-.36.37-.71.58-1.07l2.38-4.15,2.15-4.3,1.08-2.08c.2-.41.37-.78.5-1.11a7,7,0,0,1,.5-1l1.38-2.92a10.73,10.73,0,0,0,.65-1.38c.18-.46.4-.95.66-1.46.41-1,.83-1.94,1.26-2.88l1.35-2.89c1.18-2.76,2.37-5.48,3.57-8.14s2.34-5.38,3.42-8.14l1.61-4.15,1.46-4.08c.57-1.38,1.08-2.76,1.54-4.14l1.38-4.15a21.86,21.86,0,0,0,1.16-3c.25-.87.49-1.75.73-2.65s.47-1.78.73-2.65q.84-2.46,1.65-5t1.65-5c.36-1,.7-2.06,1-3.11s.65-2.09,1-3.11l1.38-4.77a15.46,15.46,0,0,0,.65-1.88c.18-.64.4-1.29.66-2l.3-.77a2.53,2.53,0,0,0,.23-.61,1,1,0,0,1,.23-.46.77.77,0,0,1,.35-.31,2.08,2.08,0,0,0,.58-.46,3.28,3.28,0,0,1,.57-.5,6.49,6.49,0,0,1,.81-.35,5.56,5.56,0,0,1,1.54-.38,1.6,1.6,0,0,1,1.15.15,1.13,1.13,0,0,0,.46.31.49.49,0,0,1,.31.38c.1.21.23.49.38.85a1.06,1.06,0,0,1,.08.85c0,.25,0,.48,0,.69s-.09.51-.19.92a3.75,3.75,0,0,0-.23.77,4.78,4.78,0,0,1-.23.77,3.73,3.73,0,0,1,0,.46.82.82,0,0,0,0,.46c0,.41,0,.78,0,1.11a2.64,2.64,0,0,1-.42,1.12c-.16.3-.3.61-.43.92s-.24.61-.34.92a3.77,3.77,0,0,1-.16.84,11.45,11.45,0,0,0-.23,1.2c0,.38-.1.78-.15,1.19-.57,3-1,6-1.35,8.95a77.55,77.55,0,0,0-.49,8.64l.15,2.77c.05.92.13,1.84.23,2.76s.22,1.75.35,2.62.29,1.74.49,2.61a25,25,0,0,0,2.23,6.61,10.51,10.51,0,0,0,1.77,2.22,2.94,2.94,0,0,0,.92.66,2.19,2.19,0,0,0,.85.19,3.66,3.66,0,0,0,.84-.08,3.21,3.21,0,0,0,.54-.23,2.52,2.52,0,0,0,.69-.31.71.71,0,0,1,.35-.19.65.65,0,0,0,.34-.19,4.89,4.89,0,0,0,.62-.46,1.84,1.84,0,0,1,.34-.27,1.91,1.91,0,0,0,.35-.27,6.18,6.18,0,0,0,.69-.61c.46-.46.93-1,1.42-1.46a14.86,14.86,0,0,0,1.35-1.62c.46-.56.91-1.14,1.34-1.73s.86-1.19,1.27-1.8c.31-.41.63-.85,1-1.31s.65-.92,1-1.38c.46-.87.9-1.72,1.31-2.54s.84-1.66,1.3-2.53q1.38-2.46,2.69-4.88t2.46-4.88c.56-1,1.09-2.06,1.58-3.11s1-2.11,1.42-3.19l2.3-4.76a15.28,15.28,0,0,1,.89-1.92c.33-.62.67-1.28,1-2a2.75,2.75,0,0,1,.39-.81c.25-.43.48-.81.69-1.11a6.94,6.94,0,0,1,.77-.69,10.19,10.19,0,0,1,.84-.62l.85-.54a2.43,2.43,0,0,1,.92-.3c.36-.05.59-.08.69-.08a1.18,1.18,0,0,1,.46.15,1.66,1.66,0,0,0,.62.16.65.65,0,0,1,.46.23c.1.1.3.36.61.77a6.5,6.5,0,0,0,.46.53,3.77,3.77,0,0,0,.23.54l.16.46a.72.72,0,0,1,0,.46c0,.16,0,.39,0,.69s-.05.65-.08,1-.05.7-.08,1a1.89,1.89,0,0,1-.11.62c0,.2-.09.36-.12.46a1.45,1.45,0,0,1-.11.31,3.28,3.28,0,0,1-.31.69,4.71,4.71,0,0,0-.73,1.5c-.13.48-.24,1-.34,1.49a.68.68,0,0,1-.08.31c-.31,1-.63,1.95-1,2.92s-.68,2-1,2.92c-.36,1.18-.72,2.34-1.07,3.5s-.67,2.31-.93,3.49c-.25,1-.48,1.92-.69,2.85s-.38,1.84-.54,2.76a.49.49,0,0,1-.11.31c-.08.1-.17.23-.27.38a3,3,0,0,1-.19-1.27,11.5,11.5,0,0,1,.15-1.3c.08-.44.14-.86.19-1.27a2.61,2.61,0,0,0-.15-1.23c-.15.36-.31.71-.46,1a7.15,7.15,0,0,0-.38,1,33.29,33.29,0,0,0-.73,3.45,20.26,20.26,0,0,1-.89,3.46c-.1.41-.2.81-.31,1.19a9.27,9.27,0,0,0-.23,1.19c-.1.87-.16,1.74-.19,2.62a11.21,11.21,0,0,1-.42,2.68c-.1.93-.18,1.85-.23,2.77s-.08,1.84-.08,2.77a2.6,2.6,0,0,1-.15.61h-.23a3.57,3.57,0,0,0,0-.46,2.83,2.83,0,0,1,0-.54c0-.25,0-.54,0-.84a9.24,9.24,0,0,1,.11-.92l.16-1.77c.15-2.56.38-5.23.69-8q1.08-6.69,2.54-13.3.08-.3.15-.57c0-.18.1-.4.15-.65l.54-2.62-.31.62q-.15.3-.3.69c-.47,1.54-.89,3.07-1.27,4.61s-.76,3.07-1.12,4.61a115.14,115.14,0,0,0-1.84,11.68c-.15,1.33-.26,2.64-.31,3.92l-.15,3.84a2.48,2.48,0,0,0,.11.73,1.38,1.38,0,0,1,0,.73,4.49,4.49,0,0,0-.15,2,11.19,11.19,0,0,1,.15,1.88,6,6,0,0,0,.23,1.69c.05.26.11.53.16.81a5,5,0,0,1,.07.88c.26,1.33.55,2.65.89,4a20.06,20.06,0,0,0,1.34,3.72,7.81,7.81,0,0,0,.5.73,7.25,7.25,0,0,1,.5.73,1.74,1.74,0,0,1,.08.89,1.69,1.69,0,0,0,.07.88,2.27,2.27,0,0,0,.5.73,2.22,2.22,0,0,1,.5.73l.62,1.31a5.8,5.8,0,0,0,.3.65,6.28,6.28,0,0,1,.31.58,5.6,5.6,0,0,0,.54.46l.15-.16a3.27,3.27,0,0,1-.53-.84,4.69,4.69,0,0,0-.35-.58,3.27,3.27,0,0,1-.35-.65l-.15-.23-.08-.39-.23-.61a3,3,0,0,1-.23-.61,3.12,3.12,0,0,0-.23-.62c-.1-.41-.23-.84-.38-1.31s-.28-.89-.39-1.3a1.73,1.73,0,0,0-.07-.54,5.06,5.06,0,0,0-.23-.54l.3-.15.7,2.3a3.72,3.72,0,0,0,.46,1.12c.2.33.41.68.61,1a3.26,3.26,0,0,1,.31-.2l.23-.11c.2.51.36.87.46,1.07s.26.59.46,1a13.32,13.32,0,0,0,2.46,3.23A3.66,3.66,0,0,1,401.22,554.25Zm-62-9.45c-.41.82-.78,1.63-1.11,2.42s-.68,1.6-1,2.42-.62,1.4-.92,2-.62,1.32-.93,2-.61,1.4-.92,2.07-.59,1.33-.84,2a10.4,10.4,0,0,0-.69,1.27,5.7,5.7,0,0,1-.85,1.26.47.47,0,0,0,0-.23.42.42,0,0,1,0-.15c.21-.41.39-.8.54-1.15s.34-.75.54-1.16.38-.79.54-1.15.3-.74.46-1.15c.41-.77.79-1.54,1.15-2.31s.74-1.56,1.15-2.38l2.15-4.61c.16-.41.32-.79.5-1.15a11.05,11.05,0,0,0,.5-1.15,8.94,8.94,0,0,0,.5-1.19c.13-.39.27-.78.43-1.2a1.82,1.82,0,0,1,.3-.61l.08-.08H341l-.31.89a9,9,0,0,1-.38.88,5.26,5.26,0,0,1-.47,1.19C339.63,544,339.42,544.39,339.22,544.8Zm-5,14.6.46-.81.46-.88.15.08a8.09,8.09,0,0,1-.38.8c-.16.29-.31.58-.46.89Zm3-6.07c.26-.46.5-.92.73-1.38l.73-1.46.08.07c-.21.47-.42.94-.65,1.43s-.48,1-.73,1.42l-1.46,2.84h-.08Zm0-.69c.72-1.54,1.39-3,2-4.46h.15c-.36.77-.7,1.54-1,2.31a24.44,24.44,0,0,1-1.12,2.23Zm5.38-12h.08l-.62,1.62H342Zm3.23-7.22h.07l-.61,1.38h-.08Zm9.06-25a6.32,6.32,0,0,0,.23-2.15,5.06,5.06,0,0,0-.23.54Zm2,11.3.46,1.61h-.07a4.29,4.29,0,0,1-.24-.77,4,4,0,0,0-.23-.77Zm2.77,6.91a6.9,6.9,0,0,0,.46.58,2.76,2.76,0,0,1,.38.58l-.07.07c-.16-.2-.3-.39-.43-.57l-.42-.58ZM392.54,536c-.1-1-.2-2.06-.3-3.11s-.24-2.11-.39-3.19a.86.86,0,0,1,.08-.38l.07-.08s.11-.1.31-.15a5.87,5.87,0,0,0,.16,1.15,7.94,7.94,0,0,0,0,1.69c0,.57.1,1.1.15,1.61s.13,1.06.23,1.62q.22,1.31.54,2.61t.69,2.61c.1.26.2.52.31.77a1.61,1.61,0,0,1,.07.85c-.2,0-.3,0-.3-.08a15.08,15.08,0,0,1-1-2.84C392.9,538.09,392.7,537.07,392.54,536Zm1.46-6.37-.07-1.16H394l.08,1.08Zm0-5.07.08-1h.08v.92Zm.69,11.83a13.13,13.13,0,0,1-.23-1.42,13.32,13.32,0,0,0-.23-1.43l.16-.07c.1.51.18,1,.23,1.46a14.14,14.14,0,0,0,.23,1.46Zm.85,2.07a3.77,3.77,0,0,1-.19-.92,3.79,3.79,0,0,0-.2-.92l-.23-1.85h.16l.23,1.85c.05.25.1.54.15.84a6.31,6.31,0,0,0,.23.93Zm.46,1.92-.15-1.07.15-.08.31,1Z" transform="translate(-313.91 -470.75)"/><path class="cls-1" d="M427.78,543.1a2.39,2.39,0,0,1,0,1.18c-.08.36-.17.73-.28,1.11a12.44,12.44,0,0,1-.53,1.22,5.16,5.16,0,0,1-.94,1.23l-.49.49a1,1,0,0,1-.74.32s-.08,0-.08,0,0,0-.08,0a2.19,2.19,0,0,1-2,1,2,2,0,0,1-.94,0l-.78-.2a4.33,4.33,0,0,0-.57-.25.5.5,0,0,0-.16-.2,1.05,1.05,0,0,1-.25-.2,2.68,2.68,0,0,0-.28-.25,1.72,1.72,0,0,1-.29-.24l-.24-.74a3.06,3.06,0,0,1-.17-1.43,3.09,3.09,0,0,1,.33-1.18q.17-.26.33-.57l.32-.49a2,2,0,0,1,.33-.41l-.08-.08a.27.27,0,0,1-.16.08c0-.11.08-.17.24-.17s.26,0,.29-.08l.12-.24c-.06-.06,0-.14.16-.25a1.39,1.39,0,0,1,.45-.28,3.81,3.81,0,0,0,.53-.29l.08-.08a2.24,2.24,0,0,1,1.15-.49,6.41,6.41,0,0,1,1.35-.25c.57,0,1-.08,1.26-.08a.34.34,0,0,1,.33.17c0,.11.13.16.41.16s.27-.11.16,0A2,2,0,0,1,427.78,543.1Zm-7.27,2.45a.22.22,0,0,0,.09-.16h-.09a.21.21,0,0,1-.08.16Zm4.74.57a.58.58,0,0,0,.12-.45.66.66,0,0,1,0-.37h-.08a1.49,1.49,0,0,0-.57-.08q-.17.25-.33.57a2.21,2.21,0,0,1-1,.74.85.85,0,0,1-.73,0,.57.57,0,0,1-.49-.49.71.71,0,0,1,0-.53,1.4,1.4,0,0,1,.29-.45,3.34,3.34,0,0,1,.73-.82,2,2,0,0,1,.41-.24c.16,0,.13-.06-.08-.17h-.17c-.16.06-.4.17-.73.33a.86.86,0,0,0-.53.49,2.52,2.52,0,0,1-.37.65,1.28,1.28,0,0,0-.16,1.07.65.65,0,0,0,.24.4.57.57,0,0,1,.08.25.22.22,0,0,0,.09.16l.4.25a.57.57,0,0,0,.41,0,.63.63,0,0,1,.53-.08,1,1,0,0,0,.53,0,1.06,1.06,0,0,0,.58-.49A2.23,2.23,0,0,0,425.25,546.12Zm-1.88-.57a.24.24,0,0,1-.16.08c-.06.06-.06.11,0,.16s.05,0,0,.09h.24l.17-.17c.05,0,.16-.08.32-.24h-.24a.57.57,0,0,0-.29.08C423.33,545.6,423.32,545.6,423.37,545.55Z" transform="translate(-313.91 -470.75)"/><path class="cls-1" d="M564.89,491.16a2.43,2.43,0,0,1-.3.75,7.62,7.62,0,0,0-.48.94,8.21,8.21,0,0,1-.94,1.47,15.93,15.93,0,0,1-1.65,1.78c-.4.36-.81.74-1.21,1.14s-.8.76-1.2,1.09-.85.71-1.24,1.05a9.45,9.45,0,0,1-1.23.93,51.45,51.45,0,0,1-5,2.86c-1.65.82-3.32,1.58-5,2.26-2.77,1.12-5.53,2.14-8.28,3s-5.53,1.76-8.34,2.56l-9,2.41c-1.44.44-2.91.86-4.39,1.26s-3,.82-4.46,1.26l-8.91,2.65q-4.4,1.33-8.91,2.77l-.9.24-1,.3q-.12-.24-.21-.39a.35.35,0,0,0-.33-.15,2.74,2.74,0,0,0-.73.15l-1.26.39L480.31,525l-4.85,1.54c-1.58.5-3.18,1-4.78,1.59l-4,1.48c-1.36.5-2.71,1-4,1.59-.64.25-1.27.5-1.87.76s-1.24.55-1.92.87q-.06.48-.09.9a5.38,5.38,0,0,1-.15.91l-.19,2c0,.32,0,.66,0,1s-.05.67-.09,1l-.12,3.43c0,.44-.06.89-.06,1.36s0,.93-.06,1.41l.67,0,.72,0v-.18l.18-.06v.3l2.11.09q1,0,2.1,0h4l4-.12c1.32-.08,2.66-.13,4-.15s2.68-.07,4-.15q5.84-.18,11.52-.57t11.53-.69l7.77-.49c2.57-.16,5.13-.34,7.7-.54.81,0,1.6-.06,2.38-.06s1.52,0,2.2-.06a2.69,2.69,0,0,1,1.41.3,2.77,2.77,0,0,1,.88.54.52.52,0,0,1,0,.46q-.09.27-.21.57a.83.83,0,0,1-.31.42,2,2,0,0,0-.42.42,1.43,1.43,0,0,1-.63.39,1.78,1.78,0,0,0-.51.21,1.78,1.78,0,0,1-.51.21l-.51.15a1.63,1.63,0,0,1-.49.06h-.66a6.81,6.81,0,0,0-1,.09,2.9,2.9,0,0,1-1,0c-.73.09-1.49.17-2.29.25a10.37,10.37,0,0,1-2.23,0,12.12,12.12,0,0,0-1.93,0l-1.74.21a8.69,8.69,0,0,1-1.69.18l-9.18.6q-4.54.3-9.12.48l-12.4.48-6.2.24-3.13.12q-.78.06-1.53.06H466c-2.05.08-4.13.08-6.26,0l-1.48-.09-1.41-.09v.57a2.93,2.93,0,0,0,.06.58,8.85,8.85,0,0,0,.18,1,3.07,3.07,0,0,1,.06,1.05A4,4,0,0,1,457,553a4,4,0,0,0-.18,1.14,5,5,0,0,0,.12,1.08,10.76,10.76,0,0,1,.18,1.09v1.92a8,8,0,0,0-.06,1v1q.06.24.12.45t.12.39l.18-.06-.12-1.38q0-.48,0-1c0-.33,0-.67,0-1l.12-3.43.18-3.43a4.37,4.37,0,0,0,.06-.72,4.59,4.59,0,0,1,.06-.73l.18-.06c0,.53,0,1,0,1.54s-.05,1-.09,1.53a6,6,0,0,0,0,1.57c.06.48.11,1,.15,1.57a1.07,1.07,0,0,1,.27-.16l.21-.09c0,.57,0,1.1,0,1.6a13.11,13.11,0,0,0,0,1.53l.06,3V562a4.37,4.37,0,0,0,.06.72l.13,1.44a3.23,3.23,0,0,1-.06,1.39,1.62,1.62,0,0,1-.25,1.14,1.48,1.48,0,0,1-.66.48,3.22,3.22,0,0,1-.78.18,1.9,1.9,0,0,1-.84-.06,6.26,6.26,0,0,1-.73-.3,1,1,0,0,1-.48-.42,1.28,1.28,0,0,1-.12-.66,3.05,3.05,0,0,0-.06-.6,3.05,3.05,0,0,1-.06-.6,8.26,8.26,0,0,1-.06-1,8,8,0,0,0-.06-1c0-.64-.09-1.28-.15-1.9s-.11-1.25-.15-1.89c0-1.21-.07-2.42-.09-3.65s0-2.43-.09-3.64q0-.84,0-1.65c0-.54,0-1.1,0-1.66a2.11,2.11,0,0,0-.6-.06c-.52-.08-1-.17-1.54-.27a15.63,15.63,0,0,1-1.53-.39c-.52-.12-1-.26-1.54-.42a13.41,13.41,0,0,1-1.53-.6,5.47,5.47,0,0,1-.72-.43l-.4-.24-.39-.24-.36-.27A2.31,2.31,0,0,1,445,545l-.21-.21-.21-.21a1.39,1.39,0,0,1-.21-.27l-.15-.27a4.17,4.17,0,0,1-.66-2.41,6,6,0,0,1,.72-2.77,2.69,2.69,0,0,0,.42-.66l.36-.39.36-.45a1.46,1.46,0,0,0,.18-.22,1.45,1.45,0,0,1,.18-.21l.18-.24.12-.12.67-.6.3-.27.3-.27a3.15,3.15,0,0,1,.6-.48,5.46,5.46,0,0,0,.6-.42l.54-.43a5.25,5.25,0,0,1,.55-.36,26.32,26.32,0,0,1,2.31-1.35c.75-.38,1.52-.73,2.32-1,.16-.08.32-.18.48-.28l.54-.33.55-3.55c.2-1.16.39-2.34.57-3.52s.37-2.38.57-3.58c.08-.56.17-1.15.27-1.75s.21-1.2.33-1.8l.6-3.56c.2-1.16.43-2.34.7-3.55s.49-2.38.69-3.55q.12-.66.3-1.29c.12-.43.22-.86.3-1.3.12-.76.23-1.52.33-2.29a18.37,18.37,0,0,1,.45-2.28c.32-1.41.66-2.83,1-4.28s.71-2.89,1.11-4.33l.72-2.65a.67.67,0,0,0,.06-.3l-.57.21a3.89,3.89,0,0,0-.51.21,37.64,37.64,0,0,0-3.82,1.54c-1.27.58-2.54,1.11-3.83,1.59l-.9.36-.9.36-1.75.79L448,493.75l-3.55,1.69c-.56.28-1.15.55-1.75.81a17.64,17.64,0,0,0-1.74.87l-4.34,2.29q-.54.3-1.08.63t-1.08.63l-2.11,1.21c-1.13.6-2.21,1.23-3.25,1.89l-3.19,2c-.81.48-1.6,1-2.38,1.51s-1.62,1.06-2.5,1.62a11.45,11.45,0,0,1-1.14.78,4.12,4.12,0,0,1-1,.48,2.38,2.38,0,0,1-.93.07,2.55,2.55,0,0,1-.75-.25.53.53,0,0,1-.39-.54,1.79,1.79,0,0,0-.09-.72.88.88,0,0,1,.06-.72,1.87,1.87,0,0,0,.24-.66,2.1,2.1,0,0,1,.3-.67l.36-.48a1.4,1.4,0,0,0,.24-.36q.18-.18.18-.24l.27-.27.27-.27s.06,0,.06,0,0,0,.12,0a5,5,0,0,1,.61-.54c.44-.32.87-.67,1.29-1l1.17-1a17,17,0,0,1,3.07-2.11,26,26,0,0,0,2.89-1.68c.52-.28,1-.58,1.51-.88l1.44-.93a1.84,1.84,0,0,1,.33-.18,2.3,2.3,0,0,0,.34-.18q.78-.48,1.5-.87c.48-.26,1-.54,1.44-.82l3-1.5,3-1.51,3-1.38c.57-.28,1.16-.56,1.78-.84s1.21-.57,1.78-.85l3.67-1.5c1.2-.52,2.41-1,3.61-1.48s2.41-.93,3.61-1.41l1.45-.54.72-.27a7.1,7.1,0,0,1,.78-.27l2.83-1,1.51-.54.12,0,.12,0,.12-.48.12-.48c.2-.56.39-1.12.57-1.66s.37-1.09.57-1.65a5.23,5.23,0,0,1,1-1.75,3.45,3.45,0,0,1,.69-.63,5.55,5.55,0,0,1,.63-.39,2.7,2.7,0,0,1,1.44-.12,2.56,2.56,0,0,1,.61.06,1,1,0,0,1,.48.36,4.15,4.15,0,0,1,.39.57,1.16,1.16,0,0,1,.15.57q-.06.3-.12.81c0,.35-.1.74-.18,1.18v.12a6.3,6.3,0,0,0-.18.84,2.16,2.16,0,0,0,0,.72,2.71,2.71,0,0,1-.18,1.27l.3-.06a5.75,5.75,0,0,1,.9-.3l.91-.24,1.8-.49c1.21-.32,2.39-.6,3.55-.84.81-.2,1.62-.38,2.44-.54s1.64-.34,2.44-.54l1.38-.3a4.86,4.86,0,0,1,.73-.18,3.18,3.18,0,0,0,.66-.18c.44-.08.89-.18,1.35-.31s.94-.22,1.42-.3.89-.18,1.35-.3.94-.22,1.42-.3.89-.15,1.35-.21.91-.13,1.36-.21l1.44-.24,1.51-.24q.66-.12,1.41-.21l1.54-.21c1-.12,1.92-.26,2.89-.42s1.94-.28,2.94-.37a2.14,2.14,0,0,1,.55,0,3,3,0,0,0,.54,0l-.06.19-1,.12-1.08.12-.93.12-.93.12-1.87.24c-.64.08-1.28.17-1.9.27l-1.77.27-4.22.72-2,.36-2.11.48-4.09.85c-.73.2-1.43.38-2.11.54l-2.11.48q-2.58.66-5.15,1.39c-1.7.48-3.42,1-5.14,1.56a1.84,1.84,0,0,0-.18.33q-.06.15-.12.33,5.29-1.56,10.41-2.86t10.42-2.31q4-.74,8-1.36t7.95-1q.84-.12,1.62-.27a8,8,0,0,1,1.51-.15c.68,0,1.34,0,2-.06s1.3-.1,2-.18,1.35-.16,2-.22,1.3-.11,2-.15l3.58-.24c1.22-.08,2.46-.14,3.7-.18a111.45,111.45,0,0,1,17,1.27q.9.12,1.83.18a9.55,9.55,0,0,1,1.84.3,10.36,10.36,0,0,1,1.65.63,15.42,15.42,0,0,0,1.72.69,11.88,11.88,0,0,0,1.78.48,11,11,0,0,1,1.83.55,22.87,22.87,0,0,1,5.54,3.07,1,1,0,0,0,.33.21,1,1,0,0,1,.33.21l.6.42.12-.24a21,21,0,0,0-1.92-1.39,9.15,9.15,0,0,0-1.42-.84q-.75-.36-1.47-.78a40.89,40.89,0,0,0-5.21-2.17q-2.67-.9-5.51-1.62l-1.08-.31-1.2-.24.06-.24q.66.12,1.26.27c.4.11.82.21,1.26.34a10.24,10.24,0,0,1,1.24.3l1.23.36c.88.28,1.75.51,2.59.69a17.32,17.32,0,0,1,2.53.75,1,1,0,0,0,.06-.3.53.53,0,0,1,.06-.24c.84.32,1.66.67,2.47,1.05s1.58.8,2.35,1.24,1.43.9,2.13,1.38a14.37,14.37,0,0,1,2,1.69q.48.48.9,1c.28.34.56.71.85,1.12a11.19,11.19,0,0,1,1.2,2.64,8.18,8.18,0,0,1,.33,2.53A9.41,9.41,0,0,1,564.89,491.16Zm-117.81.24q4.4-2,8.76-3.67c2.91-1.12,5.83-2.21,8.76-3.25a2.82,2.82,0,0,0,.09-.3,1.07,1.07,0,0,1,.09-.3q-5.19,1.8-10.3,4l-1.2.45a10.4,10.4,0,0,0-1.21.51l-3.67,1.69-.84.42a4.13,4.13,0,0,0-.51.24l-.45.24-1.81.91v.06l1.17-.46A8,8,0,0,0,447.08,491.4Zm4.15,54.18c.48.12,1,.22,1.45.3l1.38.24a4.39,4.39,0,0,1,0-.54,1.3,1.3,0,0,0,0-.48c-.68-.12-1.35-.26-2-.42a16.87,16.87,0,0,1-2-.6,7.34,7.34,0,0,1-1.51-.72c-.2-.16-.41-.33-.63-.49a2.94,2.94,0,0,1-.57-.54,2.77,2.77,0,0,1-.48-.63,1.32,1.32,0,0,1-.12-.81,2.58,2.58,0,0,1,.66-1.69.8.8,0,0,1,.15-.21l.21-.21a2.91,2.91,0,0,1,.36-.42l.48-.42.48-.42.46-.37a3.75,3.75,0,0,1,.51-.36l.51-.36.57-.36c1.2-.76,2.47-1.48,3.79-2.17a2.91,2.91,0,0,0,.06-.57,2.91,2.91,0,0,1,.06-.57,3.92,3.92,0,0,1-.42.24l-.48.24c-.72.4-1.44.81-2.17,1.24s-1.42.87-2.1,1.35-1.17.88-1.69,1.32a4,4,0,0,0-.42.37,6,6,0,0,1-.48.42l-.42.48-.18.18-.18.3a3.74,3.74,0,0,0-.76,1.39,2.5,2.5,0,0,0,0,1.38q.12.3.21.6a2.65,2.65,0,0,0,.27.6c.16.21.31.38.43.52a2.62,2.62,0,0,0,.42.39,7.49,7.49,0,0,0,1,.63l1,.51,1.09.36A10.87,10.87,0,0,0,451.23,545.58Zm3.19-6.32c.08-.76.15-1.51.21-2.26s.13-1.49.21-2.25q-.12,0-.12.06a38.24,38.24,0,0,0-3.67,2.16,4.87,4.87,0,0,0-.45.27l-.45.34-.36.3-.49.3-.36.36a2.38,2.38,0,0,1-.36.3.32.32,0,0,1-.12.15.32.32,0,0,0-.12.15,1.29,1.29,0,0,0-.24.3,1.92,1.92,0,0,0-.45.94,1.38,1.38,0,0,0,.09.87,1,1,0,0,0,.36.72,2.91,2.91,0,0,0,.42.36l.18.12.18.18a6.17,6.17,0,0,0,1,.51l1.08.46,1.17.33c.38.1.8.19,1.24.27a3.37,3.37,0,0,0,.78.12.05.05,0,0,1-.06-.06c0-.8.08-1.63.12-2.47S454.34,540.1,454.42,539.26Zm2.41,6.14a1.54,1.54,0,0,0,0,.51,3.33,3.33,0,0,1,0,.46,4,4,0,0,0,.84.06,5.1,5.1,0,0,1-.06-.91,1.23,1.23,0,0,0-.39-.06A1.23,1.23,0,0,1,456.83,545.4Zm1.08-5.72c.08-1.12.18-2.24.3-3.37s.22-2.25.31-3.37l-.46.21a2.42,2.42,0,0,0-.39.21,5,5,0,0,0-.12,1.09,5,5,0,0,1-.12,1.08,17.75,17.75,0,0,0-.12,2.08,17.7,17.7,0,0,1-.12,2.07c-.2,1.69-.32,3.37-.36,5.06a2.58,2.58,0,0,1,.42,0l.36,0a2.19,2.19,0,0,0,0-.63q0-.33,0-.63l.12-1.93C457.77,541,457.83,540.33,457.91,539.68Zm88-36.36a15.8,15.8,0,0,0,3-1.62l-.67.24a5.5,5.5,0,0,0-.72.3c-2.21,1-4.42,1.86-6.65,2.68s-4.47,1.57-6.71,2.26l-2.83.84-2.83.84q-3,.84-5.78,1.69L517,512.23l-5.78,1.69-7.28,2.16q-3.68,1.09-7.35,2.29c-1.24.36-2.49.75-3.73,1.15l-3.67,1.2-3.34,1-3.29,1-3.16,1-3.16,1L473,525.72c-1,.36-2.08.74-3.13,1.14-1.92.76-3.81,1.47-5.66,2.11s-3.71,1.36-5.59,2.16a2.86,2.86,0,0,1-.43.19l-.3.12a1.54,1.54,0,0,0-.12.57,2.91,2.91,0,0,1-.06.57,3.29,3.29,0,0,1,.42-.18,4.08,4.08,0,0,0,.43-.18q-.07-.12,0-.18a.33.33,0,0,0,0-.18,2.62,2.62,0,0,0,.12-.48.23.23,0,0,0,.06-.12.1.1,0,0,0,.09,0,1.3,1.3,0,0,1,.21-.09,5.17,5.17,0,0,0-.06.91l.63-.27.63-.27.06-.79h.06l-.06.73,4-1.63c2.81-1.08,5.64-2.11,8.49-3.07,1.41-.48,2.81-1,4.22-1.41l4.27-1.42,8.49-2.74q4.21-1.35,8.49-2.68,5.12-1.62,10.2-3.13l10.26-3,9.82-2.83c1.64-.48,3.28-1,4.9-1.53s3.24-1.12,4.85-1.72c1.28-.44,2.58-.9,3.88-1.38S544.68,503.88,545.93,503.32Zm-86.57,42.32a1,1,0,0,0-.42-.06,5,5,0,0,1-.91-.06V546a2.76,2.76,0,0,1-.06.52c.4,0,.81,0,1.21,0l1.2,0c1.57,0,3.12,0,4.67,0s3.12-.13,4.72-.22l.85-.12a5,5,0,0,0,.84-.18v-.24c-.48,0-1-.07-1.51-.09a13.54,13.54,0,0,0-1.56,0c-1.53,0-3,.06-4.49.06s-2.9,0-4.3-.12l-.06.42-.18.06Zm4-45.39c-.24,1-.48,2-.72,3s-.46,2-.66,3q-.67,3.44-1.33,6.86t-1.2,6.87l-.66,4.57-.61,4.58v.06a2.71,2.71,0,0,1,.37-.21l.42-.21a3.87,3.87,0,0,1,0-.48c0-.16.05-.35.09-.55l.66-4.27.66-4.7q.18-1.2.36-2.34c.12-.77.26-1.55.42-2.35.2-1.29.43-2.58.67-3.88s.48-2.6.72-3.89q.18-1,.39-2c.14-.65.27-1.29.39-1.93s.25-1.33.39-2,.29-1.27.45-1.95c0-.24.09-.49.15-.73l.16-.66.84-4.27-.06-.06-.24.72q-.12.36-.24.66c-.24,1.05-.5,2.06-.76,3S463.59,499.21,463.39,500.25Zm97.1-10.47a4.61,4.61,0,0,0-.18-3.19.48.48,0,0,1-.06-.21.48.48,0,0,0-.06-.21l-.18-.37a1.49,1.49,0,0,0-.18-.42s0,0,.18-.12a7,7,0,0,1-.6-.72,12.72,12.72,0,0,0-2.23-1.78q-1.2-.75-2.46-1.41a40.09,40.09,0,0,0-5.24-2.05q-2.72-.84-5.6-1.5a54.87,54.87,0,0,0-5.75-1c-2-.24-3.94-.42-6-.54-1.41-.08-2.78-.13-4.12-.15s-2.72,0-4.13.09-2.81.1-4.21.18-2.83.18-4.28.3q-6,.5-12,1.21t-12.07,1.92q-5.29,1-10.53,2.32t-10.54,3a.42.42,0,0,1,0,.18.42.42,0,0,0,0,.18l-.6,1.69-.42,1.74-1.08,3.5c-.2.68-.39,1.36-.54,2s-.35,1.37-.55,2l-1.08,4.15c-.24,1.09-.47,2.18-.69,3.28s-.43,2.2-.63,3.29a2.09,2.09,0,0,1-.19.36,2.66,2.66,0,0,0-.24.48,4.78,4.78,0,0,1,0-1.51l.24-1.56a12.52,12.52,0,0,0,.28-1.54,4.72,4.72,0,0,0,0-1.41c-.17.4-.33.8-.49,1.2a6.94,6.94,0,0,0-.36,1.21,18.81,18.81,0,0,0-.48,2L463,508.5c-.16.68-.31,1.36-.45,2.05s-.31,1.36-.51,2c-.12.45-.23.91-.33,1.39s-.2.94-.28,1.38a15.81,15.81,0,0,0-.48,3.13c-.08.52-.16,1-.24,1.54s-.18,1-.3,1.59-.23,1.12-.33,1.66-.19,1.09-.27,1.65-.15,1.13-.21,1.69-.13,1.12-.21,1.69a.42.42,0,0,1,0,.18.42.42,0,0,0,0,.18c1.12-.56,2.29-1.09,3.49-1.57s2.39-.94,3.55-1.38c1-.32,1.92-.66,2.86-1s1.9-.67,2.86-1,1.87-.62,2.83-.9,1.91-.58,2.83-.91q8.91-2.88,17.73-5.71t17.73-5.42l5.47-1.63,10.3-2.89v-.12l-1.2.24a9.71,9.71,0,0,1,1.47-.48,11.74,11.74,0,0,1,1.23-.24,10.56,10.56,0,0,0,2.11-.45c.68-.22,1.41-.49,2.17-.81.56-.24,1.15-.48,1.77-.7l1.78-.63c1.16-.44,2.33-.87,3.49-1.29s2.33-.88,3.49-1.36a56.4,56.4,0,0,0,6.75-3.25,8.65,8.65,0,0,0,.93-.54,4.35,4.35,0,0,1,.75-.42,9.25,9.25,0,0,0,2.47-1.36,21.12,21.12,0,0,0,2.29-1.95c.44-.52.84-1,1.2-1.54A6.39,6.39,0,0,0,560.49,489.78ZM459.78,537l-.36,3.74h-.06l.24-3.68Zm-.36,6.57c.08-.81.15-1.6.21-2.38s.13-1.58.21-2.38H460l-.36,4.7Zm5.84-61.29c-.89.32-1.72.63-2.5.94a16.36,16.36,0,0,0-2.32,1.11c.72-.2,1.44-.38,2.14-.54a19.63,19.63,0,0,0,2.08-.6,1,1,0,0,1,.42-.13Q465.14,482.73,465.26,482.25Zm-4.1,42.44-.12,1.15-.06.06.12-1.21Zm22.34,20.77c-.36,0-.9-.07-1.6-.09s-1.48,0-2.35,0-1.77.06-2.73.12-1.89.13-2.77.21a16.75,16.75,0,0,0,4.75.27C480.33,545.83,481.89,545.66,483.5,545.46Zm13-.84-1.56,0-1.63.09a6.7,6.7,0,0,0,.87.24,3.55,3.55,0,0,0,.64.06,2.1,2.1,0,0,0,.66-.12Zm4.16-71.1v-.06l2.1-.36.06.06Zm7.64,40.1,1.75-.55V513l-1.75.55Zm3-41.42.06-.06,2.35-.18Zm.3,1.44s0-.12,0-.24l1.27-.12q.6-.06,1.26-.18c.56,0,1.14-.07,1.75-.09s1.2-.07,1.8-.15l3.55-.24,3.56-.24q3-.12,5.93-.06c1.94,0,3.9.16,5.86.36a6.07,6.07,0,0,0,.85.06,3.72,3.72,0,0,1,.9.12,10.59,10.59,0,0,1,1.75.36c-.24.12-.39.16-.43.12q-3.24-.3-6.56-.48t-6.74-.18c-1.12,0-2.26,0-3.4.06s-2.28.1-3.4.18-2.32.19-3.46.33-2.3.27-3.47.39h-1Zm17.34-2.4c-1.08,0-2.17-.05-3.25,0s-2.17.07-3.25.15v-.12c1.12-.08,2.22-.13,3.31-.15s2.19,0,3.31,0Zm5.18-.12c-1.41-.13-2.8-.21-4.19-.25s-2.78,0-4.18,0l.06-.12c1.4,0,2.8,0,4.18.06s2.76.1,4.13.18Zm4.57.42q-.66-.12-1.23-.18l-1.18-.12v-.18a8.33,8.33,0,0,0,1.21.15l1.2.09Z" transform="translate(-313.91 -470.75)"/><path class="cls-1" d="M542,527.52a5.92,5.92,0,0,1-.12,1.15,4.78,4.78,0,0,1-.42,1.2,5,5,0,0,1-1.69,2,2.25,2.25,0,0,1-.24.21l-.3.21a1.45,1.45,0,0,1-.21.18,1.45,1.45,0,0,0-.21.18,2.17,2.17,0,0,0-.42.27,2.17,2.17,0,0,1-.42.27,6.83,6.83,0,0,1-1.39,1l-.6.37-.27.12-.27.12a4.13,4.13,0,0,0-.51.24l-.45.24a1.49,1.49,0,0,1-.45.15.92.92,0,0,0-.4.15,23.53,23.53,0,0,1-2.64,1.35,16.83,16.83,0,0,0-2.59,1.42,6.73,6.73,0,0,1-1,.51,6.63,6.63,0,0,0-1,.51l-1,.45a6.55,6.55,0,0,0-1,.52,4.07,4.07,0,0,0-.12,1v1a.12.12,0,0,1,0,.09.24.24,0,0,0,0,.15h-.18a.46.46,0,0,1-.06-.18.46.46,0,0,0-.06-.18q.06-.42.09-.78t0-.72a.27.27,0,0,1,0-.12.27.27,0,0,0,0-.12,5.34,5.34,0,0,0-.54.3.46.46,0,0,1-.18.06.17.17,0,0,0-.12.06,7.7,7.7,0,0,0,0,1.92.49.49,0,0,0,.09.3.33.33,0,0,1,0,.31,1,1,0,0,0,0,.84,5.5,5.5,0,0,1,.3.72,2.63,2.63,0,0,0,.3.63q.18.27.42.57a2.73,2.73,0,0,0,1.15,1,2.45,2.45,0,0,0,1.62.18l.21-.09a.59.59,0,0,0,.21-.15l.37-.18a.54.54,0,0,1,.27.09.38.38,0,0,0,.33,0,.74.74,0,0,0,.33-.24,1.55,1.55,0,0,1,.33-.3,2.35,2.35,0,0,0,.54-.31,1.84,1.84,0,0,0,.6-.3.47.47,0,0,0,.09-.12.85.85,0,0,1,.15-.18l-.06-.12-.21.12-.21.12a3.65,3.65,0,0,1-.54.42,4,4,0,0,1-1.81.43h-.3l.06-.18.37,0,.36,0a.21.21,0,0,0,.18-.07l.18-.12a.51.51,0,0,0,.18-.12.7.7,0,0,1,.18-.12v-.48a1.05,1.05,0,0,0,.3-.12.7.7,0,0,0,.18-.12.7.7,0,0,1,.18-.12,8.27,8.27,0,0,0,1.45-1.14.52.52,0,0,1,.36-.18,1.6,1.6,0,0,1,.72-.18l.54-.12a.68.68,0,0,1,.48.06.49.49,0,0,0,.39.06c.1,0,.21,0,.34.18s.2.18.24.18.1.1.18.3a.58.58,0,0,1,0,.48,3.14,3.14,0,0,1-.33.6,3.25,3.25,0,0,1-.52.72l-.45.49-.12.12-.24.24-.24.24a2.16,2.16,0,0,0-.33.27,1.49,1.49,0,0,1-.39.27l-.72.6c-.25.2-.49.38-.73.54a11.14,11.14,0,0,1-1.71.82,8,8,0,0,1-1.9.45,4.44,4.44,0,0,1-1.93-.18,7.2,7.2,0,0,1-1.68-.73,5.58,5.58,0,0,1-1.51-1.68,7.49,7.49,0,0,1-.78-2,10.21,10.21,0,0,1-.27-3,15.49,15.49,0,0,1,.51-3.07,2.19,2.19,0,0,1,0-.36q0-.18.09-.42l.18-.72.55-1.45a12.26,12.26,0,0,1,.57-1.53c.22-.5.45-1,.69-1.48a3.75,3.75,0,0,1,.36-.51,1.81,1.81,0,0,0,.3-.51,4.13,4.13,0,0,1,.24-.51l.24-.45a2.81,2.81,0,0,1,.27-.52,4.92,4.92,0,0,0,.28-.45,23.27,23.27,0,0,1,2.82-3.25l1.06-.93a12.57,12.57,0,0,1,1.11-.87,5.54,5.54,0,0,0,.45-.37,1.81,1.81,0,0,1,.51-.3,2.25,2.25,0,0,0,.43-.27,1.78,1.78,0,0,1,.48-.27l.39-.21.39-.21a2.51,2.51,0,0,0,.42-.12,3.29,3.29,0,0,0,.42-.18v.18a6.12,6.12,0,0,1,.94-.27l.93-.21.36,0,.42-.09a3.57,3.57,0,0,1,.78-.06,6.57,6.57,0,0,1,2.29.42l.24.12.3.18a.94.94,0,0,0,.24.18,2.92,2.92,0,0,1,.31.18,1.45,1.45,0,0,0,.21.18,1.45,1.45,0,0,1,.21.18l.21.21.21.21.18.18.18.19a1.71,1.71,0,0,0,.3.36,5.49,5.49,0,0,1,.24.9l.06.48Zm-18.06,11a7,7,0,0,1,.66-.36.93.93,0,0,0,.15-.39,2.23,2.23,0,0,1,.09-.39,23.59,23.59,0,0,1,2.65-5.54,1.58,1.58,0,0,1,.15-.24,2.25,2.25,0,0,1,.21-.24c.16-.25.33-.49.49-.73l.48-.72h-.06a.76.76,0,0,0-.42.36c-.57.64-1.1,1.31-1.6,2a18.83,18.83,0,0,0-1.35,2.11,16.13,16.13,0,0,0-1.09,2.52c-.12.33-.22.62-.3.88s-.16.55-.24.87q.06-.06.09-.06S523.91,538.52,524,538.48Zm.66,5.18a1.05,1.05,0,0,1,.06.33,1.05,1.05,0,0,0,.06.33,2.74,2.74,0,0,0,.28.54q.15.24.27.48a2.7,2.7,0,0,0,1.5,1,.34.34,0,0,1,.24.07q.12,0,.12.18t-.18.12a1.57,1.57,0,0,1-1.74-1,2.86,2.86,0,0,1-.61-1,8.76,8.76,0,0,0-.48-1.14v-.18h.06s.08-.08.24-.13A2.85,2.85,0,0,0,524.61,543.66Zm-.42-4.4a.24.24,0,0,0,.18-.06V539l-.06.06v.06Zm.6-.18.55-.21.48-.21-.24-.6-.24,0a.27.27,0,0,0-.18.15.66.66,0,0,1-.31.54q-.06.12,0,.15S524.83,539,524.79,539.08ZM526,537.4a1.46,1.46,0,0,0,.18-.22.81.81,0,0,0,.06-.39q.12-.3.18-.48a.58.58,0,0,1,.24-.3l2.23-1.29c.72-.42,1.42-.86,2.11-1.3l.57-.36.51-.36q.24,0,.06-.18.06-.36.15-.42a1.45,1.45,0,0,0,.21-.18l.54-.33.48-.33.3-.19.19-.18s.09,0,.18-.12l.12-.12a3.51,3.51,0,0,1,.48-.42,2.91,2.91,0,0,1,.36-.42.85.85,0,0,1,.18-.15.85.85,0,0,0,.18-.15l.24-.24.18-.18a.05.05,0,0,0,.06.06h.12a.17.17,0,0,0,.12-.06h-.12q.12-.12.06-.18s0-.06,0-.06v-.12a.05.05,0,0,1-.06-.06.17.17,0,0,1-.12-.06,3.2,3.2,0,0,0-.72-.06h-.18a.24.24,0,0,1-.24-.12c-.08,0-.2-.08-.36-.25l-.12.13a1.32,1.32,0,0,0-.36.48c0,.28-.19.42-.43.42a1.07,1.07,0,0,0-.48.12,1.45,1.45,0,0,1-.21.18,1.45,1.45,0,0,0-.21.18s0,.08-.12.12l-.87.6a5.79,5.79,0,0,0-.88.72c-.36.33-.71.67-1,1a10.07,10.07,0,0,0-.93,1.14,11.08,11.08,0,0,0-.57,1l-.52,1a.38.38,0,0,1-.15.09.59.59,0,0,0-.21.15,1.29,1.29,0,0,1,.18-1.14,5.16,5.16,0,0,0,.21-.49.73.73,0,0,0,0-.54,1.6,1.6,0,0,0-.42.3l-.36.36a7.82,7.82,0,0,0-.69,1.39,5.81,5.81,0,0,1-.75,1.38c-.08.16-.16.32-.24.46a4.13,4.13,0,0,0-.24.51v.06l.45-.24A4.13,4.13,0,0,1,526,537.4Zm-.24,3.91h-.06V541h.06Zm.06,1.8a.42.42,0,0,0,0-.18.42.42,0,0,1,0-.18.24.24,0,0,0,.06.18.24.24,0,0,1,.06.18Zm13.12-13.24q.24-.24-.36-.3l-.6.3a1.71,1.71,0,0,1-.3.36.53.53,0,0,1-.24.15.53.53,0,0,0-.24.15,1.45,1.45,0,0,1-.21.18,1.09,1.09,0,0,0-.22.18,2.21,2.21,0,0,0-.45.3,1.9,1.9,0,0,1-.45.31l-.42.3-.24.12L535,532a.75.75,0,0,1-.33.18.75.75,0,0,0-.33.18,2.29,2.29,0,0,0-.73.42.53.53,0,0,1-.24.15q-.12,0-.24-.15a2,2,0,0,1-.48.6q-.42.3-.93.63c-.34.23-.67.44-1,.64s-.73.47-1.11.69-.75.45-1.11.69-.79.49-1.15.75-.74.52-1.14.76q-.24.12-.24.78a.46.46,0,0,1,.18-.06.17.17,0,0,0,.12-.06l1.56-.81a13.23,13.23,0,0,0,1.51-.88l2.17-1.26,1.5-.9c.48-.28,1-.59,1.45-.91l1.08-.72,1.08-.78c.32-.24.66-.5,1-.79s.67-.58,1-.9A1.18,1.18,0,0,0,538.94,529.87Zm-12.58,14.39a2,2,0,0,0,.12.21l.12.21q.12.06.12.12s0,.08.12.12l-.06.12a.85.85,0,0,1-.15-.18.32.32,0,0,0-.15-.12,2,2,0,0,0-.12-.21.37.37,0,0,1-.06-.21Zm1.08.84a1.44,1.44,0,0,1-.6-.6l.06-.06.33.33a.84.84,0,0,0,.33.21Zm.36-.12h.25l-.19.18a.24.24,0,0,1-.18-.06Zm7.65-13.85q-.42-.18-.48,0a.19.19,0,0,0-.06.13.17.17,0,0,1-.06.12.35.35,0,0,1-.06.24H535q.18,0,.18-.12A2,2,0,0,0,535.45,531.13Z" transform="translate(-313.91 -470.75)"/><path class="cls-1" d="M572.41,533.18a.59.59,0,0,1,.54.12l.12.24a2.33,2.33,0,0,0-.12.3l-.15.33c-.06.15-.11.26-.15.34s-.16.23-.24.33a3.27,3.27,0,0,1-.24.27.68.68,0,0,1-.24.24l-.3.3a6.89,6.89,0,0,1-.66.54.86.86,0,0,1-.6.3.87.87,0,0,0-.49.12,1.69,1.69,0,0,1-.6.27l-1,.33a1.92,1.92,0,0,1-.48.19,1.33,1.33,0,0,0-.42.18c-.61.24-1.21.49-1.81.75s-1.18.53-1.75.81c-1,1.57-2.06,3.07-3.07,4.52q-4.1,5.77-8.36,11.07c-1.09,1.29-2.21,2.59-3.38,3.92l-2,2.22c-.64.73-1.31,1.47-2,2.23-1.24,1.41-2.48,2.79-3.7,4.15s-2.52,2.69-3.88,4l-2,1.86c-.66.61-1.33,1.19-2,1.75S532,576,531.27,576.5s-1.56,1.07-2.44,1.59a17,17,0,0,1-2.05,1,3.71,3.71,0,0,1-.57.18c-.18,0-.41.1-.69.19a3.28,3.28,0,0,1-.67.18,4.37,4.37,0,0,1-.72.06,5.07,5.07,0,0,1-2.47-.49,4.36,4.36,0,0,1-1.56-1.74,7.62,7.62,0,0,1-.33-1.12q-.09-.45-.21-.93a14.43,14.43,0,0,1,0-1.86,13.19,13.19,0,0,1,.66-3.92,20.31,20.31,0,0,1,1.59-3.73,27.08,27.08,0,0,1,2.26-3.43,49.89,49.89,0,0,1,5.48-5.9,69.43,69.43,0,0,1,6.56-5.27c2.25-1.58,4.52-3.1,6.8-4.54q3-1.81,5.9-3.46c2-1.11,4-2.16,6-3.17l1.93-.93,2-.93a3,3,0,0,1,.33-.6c.14-.2.27-.4.39-.61l-.48.25-3.49,1.5c-.57.2-1.13.41-1.69.63l-1.63.63a13.21,13.21,0,0,1-2.88.85,10.43,10.43,0,0,1-1.15.15,4.42,4.42,0,0,1-.9,0,3.42,3.42,0,0,1-.6-.18l-.61-.24-.24-.12a.94.94,0,0,1-.24-.18.44.44,0,0,0-.12-.16.28.28,0,0,1-.12-.15.66.66,0,0,1-.24-.42,1.67,1.67,0,0,1-.12-.72,2.19,2.19,0,0,0,0-.36,1.89,1.89,0,0,1,0-.3l.3-.84a3.36,3.36,0,0,0,.18-.43q.06-.18.18-.48a1.17,1.17,0,0,0,.09-.24.53.53,0,0,1,.15-.24.53.53,0,0,0,.15-.24.53.53,0,0,1,.15-.24,3.48,3.48,0,0,0,.4-.6,2.35,2.35,0,0,1,.45-.6c.68-.81,1.48-1.67,2.4-2.59s1.87-1.85,2.83-2.77l2.77-2.59a.32.32,0,0,1,.12-.15.85.85,0,0,0,.18-.15V526a.83.83,0,0,1,.25-.18q.54-.36.36-.36a.47.47,0,0,0-.3-.06,1.85,1.85,0,0,0-.55.06h-.36l-.3.06-.54.06q-.66.12-1.17.18a7.93,7.93,0,0,1-.88.06,12,12,0,0,1-1.71,0c-.7,0-1.32-.06-1.84-.06l-.72,0q-.48,0-1,0l-.67.09-.72.09a6.88,6.88,0,0,1-.84-.06l-.78-.12a.41.41,0,0,1-.37-.3,1,1,0,0,1,0-.49l.15-.42a1.19,1.19,0,0,1,.28-.42,1.06,1.06,0,0,1,.51-.33q.39-.15.63-.27a.73.73,0,0,1,.36-.18l2.77-1c.92-.33,1.85-.61,2.77-.85a10.43,10.43,0,0,1,1.35-.39l1.42-.33.66-.12.72-.12.3-.06.3,0,.31,0,.54-.09a4.39,4.39,0,0,1,.54,0c.8-.08,1.6-.15,2.41-.21a11.61,11.61,0,0,1,2.22,0,7.5,7.5,0,0,1,1.63.36,6.32,6.32,0,0,1,1.14.78s.07.06.09.06,0,0,.09.12l.07.18.18.36c-.21.37-.42.72-.64,1.06s-.43.69-.63,1.05-.5.73-.78,1.12a9.59,9.59,0,0,1-1,1.17q-.54.6-1.11,1.17c-.38.38-.79.76-1.23,1.12l-.61.54-.36.3-.12.12-.12.06a1.45,1.45,0,0,1-.21.18l-.15.12a.7.7,0,0,0-.18.12,1.71,1.71,0,0,0-.36.3l-.33.42c-.1.12-.23.27-.39.43a4.22,4.22,0,0,1-.27.36q-.15.18-.33.36l-.73.72-.27.3a2.17,2.17,0,0,0-.27.42v.18l.12.06h.24a6.81,6.81,0,0,0,1.39-.42l1.23-.48c.42-.16.85-.34,1.3-.54l3.07-1.27.81-.33q.39-.15.81-.27a5.75,5.75,0,0,1,.9-.3,2,2,0,0,1,.55-.12,1.33,1.33,0,0,1,.42-.06l.24-.06a.67.67,0,0,1,.3.06.62.62,0,0,1,.36.06.24.24,0,0,1,.18.06.17.17,0,0,1,.12.06.12.12,0,0,1,.09,0,.12.12,0,0,0,.09,0l.12.12a1.71,1.71,0,0,1,.3.36l.06.12h.06v.06a.39.39,0,0,0,0,.18.3.3,0,0,1,0,.12,1.24,1.24,0,0,1,.1.52,1.8,1.8,0,0,0,0,.39,5.66,5.66,0,0,1-.31,1.2,7.34,7.34,0,0,1-.72,1.75l-.06.12a5,5,0,0,1,.48-.21l.48-.21c.85-.32,1.69-.61,2.53-.85l2.53-.72Zm-30.7,33.17c1.4-1.48,2.79-3,4.15-4.51a44.71,44.71,0,0,0,3.86-5c-.29.28-.51.49-.67.63a4,4,0,0,0-.48.51q-3.8,4.39-7.88,8.79c-.69.73-1.39,1.44-2.11,2.14L536.41,571c-.72.68-1.47,1.35-2.26,2s-1.57,1.32-2.37,2c-.64.48-1.29.94-1.93,1.38a21.57,21.57,0,0,1-2.05,1.27q-.6.3-1.2.54a10.25,10.25,0,0,1-1.32.42,7.73,7.73,0,0,1-1.36.12,2.84,2.84,0,0,1-1.29-.3,2.72,2.72,0,0,1-1.57-1.74,4.94,4.94,0,0,1-.18-.55q-.06-.24-.12-.54a1.47,1.47,0,0,1-.12-.54v-.54a9.57,9.57,0,0,1,0-2.14,14,14,0,0,1,.42-2.2,21.6,21.6,0,0,1,3.13-6.38,34.18,34.18,0,0,1,2.23-2.8c.8-.9,1.62-1.77,2.47-2.61q1.56-1.51,3.19-2.86c1.08-.91,2.21-1.78,3.37-2.62q3.79-2.89,7.73-5.33t8.1-4.61l3.25-1.65,3.31-1.66s0-.1.12-.18a.7.7,0,0,1,.12-.18.17.17,0,0,0,.06-.12q-.48.24-.93.42t-.93.42c-2.41,1.17-4.8,2.42-7.17,3.77s-4.73,2.74-7.1,4.18c-2,1.29-3.93,2.62-5.9,4a59.32,59.32,0,0,0-5.66,4.55c-.92.8-1.82,1.65-2.71,2.56s-1.72,1.83-2.53,2.8a29.23,29.23,0,0,0-2.22,3,17.75,17.75,0,0,0-1.69,3.34,11.68,11.68,0,0,0-1.14,4.15,1.1,1.1,0,0,0-.09.54,1.3,1.3,0,0,1,0,.48,3.74,3.74,0,0,0,0,.52,1.54,1.54,0,0,1,0,.51q.06.48.12,1c0,.34.1.69.18,1.06l.18.54a.8.8,0,0,1,.18.27q.06.15.12.27a1.5,1.5,0,0,0,.33.51l.45.45a3.65,3.65,0,0,0,2.35.72,5.59,5.59,0,0,0,1.45-.18,10.25,10.25,0,0,0,1.32-.42l1.08-.48c.36-.16.73-.34,1.09-.54.64-.4,1.26-.82,1.86-1.27s1.19-.88,1.75-1.32c1.16-.92,2.27-1.85,3.31-2.77s2.06-1.94,3-2.92S540.79,567.35,541.71,566.35Zm-.6-5.72q3.25-3.68,6.32-7.43t6-7.62q.48-.6.9-1.17c.28-.38.58-.77.9-1.18q-2.28,1.15-4.45,2.35T546.35,548a8.2,8.2,0,0,0-1.33.9,7,7,0,0,1-1.26.85,19.16,19.16,0,0,0-2.62,1.5c-.82.56-1.64,1.15-2.44,1.75s-1.6,1.21-2.38,1.83-1.57,1.24-2.38,1.84a14.36,14.36,0,0,0-1.56,1.26c-.52.49-1.06,1-1.63,1.39a7.2,7.2,0,0,0-.93.84,8.91,8.91,0,0,0-.75.9,6.8,6.8,0,0,1-.88,1.15l-.93,1c-.56.64-1.08,1.29-1.56,1.93a14.1,14.1,0,0,0-1.27,2,12.76,12.76,0,0,0-.87,2.08,8.65,8.65,0,0,0-.39,2.08,2.13,2.13,0,0,1-.12.78,2.77,2.77,0,0,1,0,.39,3.19,3.19,0,0,0,0,.45v1a4,4,0,0,0,.12,1,.92.92,0,0,0,.12.36.46.46,0,0,1,.06.18.46.46,0,0,0,.06.18,1.39,1.39,0,0,1,.21.27,1.39,1.39,0,0,0,.21.27,1.76,1.76,0,0,0,1.51.31,1.59,1.59,0,0,1,.39-.1,1.49,1.49,0,0,0,.45-.15,4.13,4.13,0,0,0,.51-.24,4.13,4.13,0,0,1,.51-.24,11.53,11.53,0,0,0,1.05-.66c.35-.24.7-.46,1.06-.66a28.34,28.34,0,0,0,3.46-2.59c1.1-1,2.18-2,3.22-3,.52-.52,1-1,1.48-1.6s1-1.09,1.53-1.65c.12-.44.27-.91.45-1.42s.37-1.07.57-1.71c-1.32,1.44-2.65,2.84-4,4.18s-2.72,2.6-4.12,3.77a27.28,27.28,0,0,1-4.1,3.13l-.93.57a4.19,4.19,0,0,1-.81.39l-.33.12s0,0-.09.06h-.24q.18-.18.12-.18h.06s.06,0,.06,0,0,0,.06,0h.12l.36-.15.48-.21,1-.61c.34-.2.72-.44,1.12-.72l2.13-1.65a24,24,0,0,0,2.14-1.9c1.45-1.32,2.84-2.7,4.18-4.12S539.82,562.12,541.11,560.63Zm-16.2,11.2a2.19,2.19,0,0,1,0,.36,2.19,2.19,0,0,0,0,.36q0,.42,0,.75a5.8,5.8,0,0,0,.09.64,3.81,3.81,0,0,1-.21-1.15,5.87,5.87,0,0,1,.09-1.32c.08-.44.18-.89.3-1.36a9.48,9.48,0,0,1,.49-1.35,3.92,3.92,0,0,1,.24-.42,3.92,3.92,0,0,0,.24-.42l.12.06a8.55,8.55,0,0,0-1.15,3.07,2.23,2.23,0,0,0-.09.39A2.23,2.23,0,0,1,524.91,571.83ZM531,561.42a7.52,7.52,0,0,1,.91-.88,12.59,12.59,0,0,0,1-.87v.18c-1,.84-1.88,1.72-2.74,2.62a31.2,31.2,0,0,0-2.38,2.8h-.12c.24-.36.51-.71.79-1.06l.84-1q.42-.48.84-.93A12.39,12.39,0,0,1,531,561.42Zm4.28-3.86q.9-.72,1.83-1.41c.63-.46,1.26-.92,1.9-1.36l.06.06c-.68.44-1.32.9-1.93,1.36s-1.2.93-1.8,1.41Z" transform="translate(-313.91 -470.75)"/><path class="cls-1" d="M568.92,538.36l.33-.54.33-.55.06.07a3.15,3.15,0,0,1-.3.48,6.32,6.32,0,0,0-.36.54Zm28.17,7.58a.36.36,0,0,1-.06.33l-.24.46a1.4,1.4,0,0,1-.24.36,1.29,1.29,0,0,0-.24.42q-.24.3-.36.33a.53.53,0,0,0-.24.15.87.87,0,0,1-.45.18,1.92,1.92,0,0,0-.45.12,2.15,2.15,0,0,1-.85.12.6.6,0,0,0-.27-.06.61.61,0,0,1-.33-.12,1.6,1.6,0,0,1-.42-.3,1.3,1.3,0,0,1-.48-.24,5.34,5.34,0,0,1-.54-.3,7.1,7.1,0,0,1-1.24-1.63,9.07,9.07,0,0,1-.81-1.92,7.94,7.94,0,0,1-.48-2.71,16.12,16.12,0,0,1,.12-2l.24-1.93.24-1.44q.12-.72.24-1.38-.42.48-.81,1c-.26.34-.51.69-.76,1a6.15,6.15,0,0,0-.72,1q-.3.51-.66,1.05a4.22,4.22,0,0,1-.27.36q-.15.18-.33.36a2.62,2.62,0,0,1-.39.42,1.8,1.8,0,0,0-.33.36.66.66,0,0,1-.15.21.66.66,0,0,0-.15.22l-.19.3a2.42,2.42,0,0,0-.21.39,2.42,2.42,0,0,1-.21.39l-.48.72a8.44,8.44,0,0,1-.54.72c-.24.37-.5.74-.78,1.12s-.57.75-.85,1.11a16.69,16.69,0,0,1-2.16,2.35,3.51,3.51,0,0,1-.7.54,6.46,6.46,0,0,0-.75.54l-.42.21L578,549l-.84.31a2.17,2.17,0,0,1-.55.15,2.22,2.22,0,0,0-.54.15,8.87,8.87,0,0,1-1.74.18c-.28,0-.57-.07-.85-.09a3.17,3.17,0,0,1-.78-.15,5.93,5.93,0,0,1-.87-.28,2.33,2.33,0,0,1-.69-.39l-.67-.57a6.1,6.1,0,0,1-.6-.63.54.54,0,0,1-.15-.3.54.54,0,0,0-.15-.3q-.06-.24-.18-.6a5.52,5.52,0,0,1-.12-1,.48.48,0,0,1,0-.3.74.74,0,0,0,0-.36v-.66q.06-.3.12-.66a2.5,2.5,0,0,1,.24-.73.4.4,0,0,0,0-.33.28.28,0,0,1,0-.33,1.22,1.22,0,0,0,.36-.57,3.71,3.71,0,0,1,.18-.57q.12-.3.24-.63a1.48,1.48,0,0,1,.37-.58,1.25,1.25,0,0,0,.27-.39,1,1,0,0,1,.33-.39.69.69,0,0,0,.24-.48.49.49,0,0,1,.09-.3,2.25,2.25,0,0,1,.21-.24l.84-.85q.18-.24.33-.48a3.4,3.4,0,0,0,.27-.54.32.32,0,0,1,.12-.15.85.85,0,0,0,.18-.15,2.67,2.67,0,0,1,.4-.42l.51-.42.36-.36.42-.43.21-.21.21-.21a3.35,3.35,0,0,0,.45-.27l.45-.33a1.6,1.6,0,0,0,.37-.33l.36-.39q.18-.18.33-.36l.33-.42a3.84,3.84,0,0,1-.06-.73V530a35,35,0,0,0-4.46,3.67q0-.24.12-.3c1.45-1.32,3-2.63,4.64-3.91a24.47,24.47,0,0,1,4.15-2.59,14.77,14.77,0,0,1,1.75-.84c.6-.24,1.2-.46,1.81-.66s1.27-.38,1.89-.52,1.24-.25,1.84-.33a25.75,25.75,0,0,1,2.86-.33,15.82,15.82,0,0,1,2.92.09.8.8,0,0,1,.42.06.35.35,0,0,0,.06.24l.12.12a.92.92,0,0,0,.36.12,3.71,3.71,0,0,0,.57.18,2.21,2.21,0,0,1,.51.18c.49.17.61.49.37,1-.05.08,0,.16.12.24a.33.33,0,0,1,.06.48.87.87,0,0,0-.36.45,1.53,1.53,0,0,0-.07.51v.06c-.08.24-.18.51-.3.79h.06l-.12.12q-.12.24-.21.45l-.21.51-.06.12v.06a10,10,0,0,0-.42,1l-.36,1a4.12,4.12,0,0,0-.15.84,4.12,4.12,0,0,1-.15.84s0,.07-.09.09a.27.27,0,0,0-.15.15.5.5,0,0,1-.24-.39,2.38,2.38,0,0,1,0-.39,1.27,1.27,0,0,0,0-.39.69.69,0,0,0-.21-.39l-.33.33a.77.77,0,0,0-.22.33,5.27,5.27,0,0,0-.24,1,2.4,2.4,0,0,1-.42,1.06,1.84,1.84,0,0,0-.24.72,5.73,5.73,0,0,0-.06.81,3.07,3.07,0,0,1-.12.82,3.62,3.62,0,0,0-.12.87,5.73,5.73,0,0,1-.06.81.12.12,0,0,1,0,.09.12.12,0,0,0,0,.09l-.24.06V539a5.17,5.17,0,0,1,0-.57q0-.27.09-.57c0-.4.07-.8.09-1.18a9.78,9.78,0,0,1,.15-1.23c.08-.68.18-1.37.3-2s.26-1.36.42-2a.47.47,0,0,1,0-.19.36.36,0,0,0,0-.18,1.43,1.43,0,0,1,.06-.39,1.63,1.63,0,0,0,.06-.45,1.71,1.71,0,0,1-.3.36,27.38,27.38,0,0,0-.9,2.89,14.48,14.48,0,0,0-.36,1.81l-.24,1.8c-.08.45-.14.86-.18,1.24a5.72,5.72,0,0,0,0,1.17.21.21,0,0,0,0,.24.17.17,0,0,1,0,.24.55.55,0,0,0-.12.58,1.39,1.39,0,0,1,.12.57,2.23,2.23,0,0,0,.06.54l.12.48a7.76,7.76,0,0,0,.33,1.24,2.41,2.41,0,0,0,.69,1,.52.52,0,0,0,.27.15.52.52,0,0,1,.27.15.27.27,0,0,1,0,.27.27.27,0,0,0,0,.27.37.37,0,0,0,.27.12.37.37,0,0,1,.27.12,1.16,1.16,0,0,1,.28.24,2.25,2.25,0,0,0,.21.24.15.15,0,0,0,.24,0l.18-.12a.35.35,0,0,1-.24-.12.17.17,0,0,0-.12-.06s-.1,0-.18-.12-.18-.4-.28-.6-.21-.4-.33-.6a.24.24,0,0,0,0-.15.24.24,0,0,1,0-.15l.18-.06a2.63,2.63,0,0,0,.3.54.35.35,0,0,0,.22.24.8.8,0,0,1,.27.18,4.23,4.23,0,0,0,.42-.3,1.45,1.45,0,0,1,.18.21l.12.15.24.12a.35.35,0,0,0,.24.06.17.17,0,0,0,.12.06.46.46,0,0,1,.18.06s.06,0,.06.06a.66.66,0,0,1,.24.33A1.32,1.32,0,0,0,597.09,545.94Zm-26.61-10.29a3.82,3.82,0,0,0,.4-.45,3.09,3.09,0,0,1,.33-.39l.12.06a2.57,2.57,0,0,0-.48.6l-.43.54a1.39,1.39,0,0,0-.21.27,1.39,1.39,0,0,1-.21.27l-.06-.06.3-.42Zm15.42,4,.27-.51a1.16,1.16,0,0,0,.15-.57q-.12.12-.18.12a.17.17,0,0,0-.12.06,3.92,3.92,0,0,1-.36.42,1.63,1.63,0,0,0-.31.42.45.45,0,0,1-.15.18,1.45,1.45,0,0,0-.21.18l-.24.37-.57.81-.57.81c-.32.44-.63.89-.93,1.36s-.62.91-.94,1.35-.56.65-.84,1-.6.69-1,1.06l-.3.27-.43.33-.9.54a2.39,2.39,0,0,1-.6.36l-.6.24c-.28.08-.57.15-.85.21l-.72.15a4.35,4.35,0,0,1-1.44,0,8.21,8.21,0,0,1-1.27-.21,3.63,3.63,0,0,1-1.14-.51,3.29,3.29,0,0,0-.42-.18l-.24.24a5.55,5.55,0,0,0,1.62.78,3,3,0,0,0,.88.24,7,7,0,0,0,.93.06,2.17,2.17,0,0,0,.45,0,3.19,3.19,0,0,1,.45,0l.54-.09.48-.09.4-.09.33-.09a2.39,2.39,0,0,0,.78-.3l.36-.21.42-.21a2.53,2.53,0,0,0,.66-.48,1.55,1.55,0,0,0,.4-.27L580,547a9.72,9.72,0,0,0,1-1l.84-1c.36-.4.69-.8,1-1.2s.59-.81.87-1.21a23.51,23.51,0,0,0,1.56-2.28.11.11,0,0,0,.12-.12l.06-.13.13-.06a1.25,1.25,0,0,0,.18-.24A.63.63,0,0,1,585.9,539.62Zm-13.55,1.45a6.86,6.86,0,0,0-.54,1.47c-.12.5-.22,1-.3,1.42a1.33,1.33,0,0,0,.06.42v.36l.18.72q0,.12.06.12s.08,0,.12.12l.24-.12a.48.48,0,0,1-.06-.21.48.48,0,0,0-.06-.21.53.53,0,0,0-.06-.24.53.53,0,0,1-.06-.24,5.77,5.77,0,0,1,.24-2.29,15,15,0,0,1,2.59-4.21,23.44,23.44,0,0,1,2.26-2.32c.82-.74,1.65-1.45,2.49-2.14l.55-.33.48-.33.45-.45q.21-.21.51-.57a.84.84,0,0,0-.36.06c-.68.44-1.35.89-2,1.35a17.19,17.19,0,0,0-1.89,1.54c-.44.44-.89.87-1.33,1.29a10.34,10.34,0,0,0-1.2,1.36,2.28,2.28,0,0,0-.48.51q-.18.27-.36.51l-.73,1.08a3.79,3.79,0,0,1-.42.67A2.12,2.12,0,0,0,572.35,541.07Zm-.3-7.23a.94.94,0,0,0-.24.18l-.06-.06.36-.39q.18-.21.36-.39l.84-.84a5.68,5.68,0,0,1-.6.81Q572.41,533.48,572.05,533.84Zm10.23-1.44a3.92,3.92,0,0,0-.42.24,3.92,3.92,0,0,1-.42.24l-.54.24a3.15,3.15,0,0,0-.48.3l-.45.36-.39.36-.4.37-.39.36a6.18,6.18,0,0,1-.78.66,3.82,3.82,0,0,0-.72.66c-.73.68-1.39,1.37-2,2a13.08,13.08,0,0,0-1.56,2.17l-.31.54-.36.6a1.05,1.05,0,0,1-.12.3l-.06.24q-.06.18-.12.33t-.12.27a4.83,4.83,0,0,0-.15,1.72,4.75,4.75,0,0,0,.39,1.41.24.24,0,0,1,.06.18,2.75,2.75,0,0,0,.58.18,5.43,5.43,0,0,1,.57.19,2.79,2.79,0,0,0,1,.12h1q.12.06.24-.12c.08-.13.14-.16.18-.13a.41.41,0,0,0,.49.06l.15-.09a.24.24,0,0,0,.15-.09l.24-.24a.94.94,0,0,1,.24-.18.35.35,0,0,1,.24-.12.75.75,0,0,0,.3-.18.75.75,0,0,1,.3-.18q.24-.12.18-.3a.27.27,0,0,1,.09-.24,1.45,1.45,0,0,0,.21-.18l.64-.51a1.1,1.1,0,0,0,.39-.76.15.15,0,0,1,.09-.15.27.27,0,0,0,.15-.15,5.3,5.3,0,0,0,.54-.63q.24-.33.54-.69a1.65,1.65,0,0,0,.09-.21.59.59,0,0,1,.15-.21,4,4,0,0,0,.84-1.21,1.76,1.76,0,0,0,.19-.39,1,1,0,0,1,.18-.39,2.1,2.1,0,0,1-.4-.54l-.39-.78a1.14,1.14,0,0,0-.21.3,1.14,1.14,0,0,1-.21.3,1.45,1.45,0,0,0-.18.21,1.45,1.45,0,0,1-.18.21,2.21,2.21,0,0,1-.3.45,4.12,4.12,0,0,0-.3.39l-.57.82c-.18.26-.36.51-.51.75q-.2-.18-.06-.18l.6-.81c.2-.27.4-.56.6-.88a3.35,3.35,0,0,1,.27-.45q.15-.21.33-.51a4.22,4.22,0,0,1,.36-.57,4.12,4.12,0,0,0,.3-.45,6.27,6.27,0,0,0,.48-.67c.13-.2.27-.4.43-.6s.16-.23.24-.33l.24-.33.48-.66,1.71-2.2c.59-.74,1.22-1.48,1.9-2.2a4.09,4.09,0,0,0,.3-.33,4.09,4.09,0,0,1,.3-.33l-1.71.51a14.13,14.13,0,0,0-1.78.69,4.28,4.28,0,0,0-.6.31l-.6.36a2.35,2.35,0,0,0-.57.33A5.87,5.87,0,0,1,582.28,532.4Zm-4.69,9.93s.1,0,.18-.12l.06.12-.15,0-.15,0Zm.24-.36a13410178058243.36,13410178058243.36,0,0,1,.72-.6l.12.06a.32.32,0,0,0-.15.12.47.47,0,0,1-.09.12.32.32,0,0,0-.15.12.47.47,0,0,1-.09.12.94.94,0,0,0-.24.18Zm1.2-1.14-.12.12-.06-.06a4.51,4.51,0,0,1,.42-.48,7,7,0,0,0,.49-.55A3.92,3.92,0,0,1,579,540.83Zm14.69-2.11a2.77,2.77,0,0,0,.24,1,4.16,4.16,0,0,0,.21.76l.27.69a.33.33,0,0,1,.06.48h-.18a1.91,1.91,0,0,1-.45-.72,9,9,0,0,1-.27-.91q-.06-.48-.09-1a5.32,5.32,0,0,0-.15-1v-.12l.12-.06h.06l.12-.06a.24.24,0,0,0,.06.18s0,.1,0,.18Zm.9-.42h-.06V538h.06Zm.43-.42H595v-.3Zm.18,2q-.06-.24-.18-.84h.12q.06.24.09.42t.09.42Zm.54.49a1.54,1.54,0,0,1-.15-.49,4,4,0,0,0-.09-.48l.06-.06a1.47,1.47,0,0,1,.12.54,1.11,1.11,0,0,0,.12.49Zm.12.48-.06-.24.18-.06.12.24Z" transform="translate(-313.91 -470.75)"/><path class="cls-1" d="M685.49,554.25a2.09,2.09,0,0,1,.12.89,2.23,2.23,0,0,1-.12.65,2.58,2.58,0,0,1-.69.92.91.91,0,0,1-.5.35l-.57.19-.73.15a1.47,1.47,0,0,1-.81-.07c-.51-.11-.82-.26-.92-.46a7.2,7.2,0,0,1-.58-.5l-.58-.58a4.34,4.34,0,0,1-.5-.61,2.78,2.78,0,0,0-.5-.62q-.45-.62-1-1.23a9.57,9.57,0,0,1-.88-1.3q-.39-.71-.69-1.35c-.21-.44-.41-.88-.62-1.34a24.09,24.09,0,0,1-1.22-2.69c-.31-1-.61-1.94-.89-2.88s-.55-1.91-.81-2.89a41.82,41.82,0,0,1-1.22-8.37,55.86,55.86,0,0,1,0-6.07q.15-3.08.53-6.15c.11-1,.23-2.06.39-3.11s.3-2.09.46-3.11c.15-.82.29-1.61.42-2.38s.27-1.54.42-2.31a15.11,15.11,0,0,1-.88,1.54,14.1,14.1,0,0,0-.88,1.54q-1.23,2-2.46,3.95t-2.69,4c-.1.1-.22.2-.35.31a6.94,6.94,0,0,0-.57.53,8.84,8.84,0,0,1,1-2c.41-.62.81-1.23,1.23-1.85.2-.3.39-.61.57-.92s.35-.61.5-.92a8.69,8.69,0,0,0,.69-1.85c-.82.93-1.53,1.8-2.15,2.62q-1.69,2.54-3.3,4.68a24.3,24.3,0,0,1-1.85,2.23,16.37,16.37,0,0,1-2.22,2,4.81,4.81,0,0,1-.81.65,9.19,9.19,0,0,0-.81.58,8.56,8.56,0,0,1-.88.65,9.19,9.19,0,0,0-.81.58c-.36.2-.7.4-1,.57s-.65.35-1,.5l-1.15.47-.46.15a5.17,5.17,0,0,1-.62.15l-.53.08a1.39,1.39,0,0,1-.54.08,6,6,0,0,1-1.08-.08,4.38,4.38,0,0,1-1.92-.62,6.4,6.4,0,0,1-1.61-1.11,13.69,13.69,0,0,1-1.31-1.42,16.91,16.91,0,0,1-1.92-3.23.77.77,0,0,1-.07-.34,1.46,1.46,0,0,0-.08-.43l.23-.07c.1.2.2.41.31.61l.3.62a12.11,12.11,0,0,0,1.16,2.07,10.3,10.3,0,0,0,1.46,1.77,7.49,7.49,0,0,0,2.38,1.38,6.08,6.08,0,0,0,2.92.23A9.27,9.27,0,0,0,656,528c.41-.26.85-.53,1.34-.81a8.22,8.22,0,0,0,1.35-1,26,26,0,0,0,3.92-3.84c1.12-1.39,2.2-2.82,3.22-4.31s2-3,2.85-4.45,1.74-3,2.61-4.54a4.5,4.5,0,0,1,.46-.84,4.84,4.84,0,0,0,.46-.85c.41-.87.82-1.71,1.23-2.53s.82-1.67,1.23-2.54l-.08-.07a6.23,6.23,0,0,0-.54.8c-.15.29-.3.55-.46.81q-1.92,3.54-4,7t-4.35,6.84l-1.38,1.84c-.46.62-.95,1.23-1.46,1.85l-1.53,1.69c-.52.56-1,1.1-1.62,1.61a17.19,17.19,0,0,1-1.77,1.42,11.58,11.58,0,0,1-1.92,1.12,8.9,8.9,0,0,1-2,.8,4.3,4.3,0,0,1-1.88.12,4.59,4.59,0,0,1-2.26-.69,8.66,8.66,0,0,1-1.81-1.54A5.88,5.88,0,0,1,647,525a12.14,12.14,0,0,1-.65-1,12.94,12.94,0,0,1-1.08-2.23c-.15-.31-.31-.6-.46-.88a2.89,2.89,0,0,1-.31-.88,11.45,11.45,0,0,0-.57-2.58,10.72,10.72,0,0,1-.58-2.5c-.1-.76-.22-1.54-.35-2.34s-.24-1.6-.34-2.42c-.1-1.54-.16-3.09-.16-4.65s0-3.14.08-4.72l-1.07,3c0,.31,0,.62,0,.92s0,.59,0,.85c0,.82-.06,1.63,0,2.42s.07,1.58.12,2.34a36.92,36.92,0,0,0,.58,4.65,32.41,32.41,0,0,0,1.11,4.34,1.3,1.3,0,0,1,.15.54.25.25,0,0,1-.07.16l-.23.23c-.11-.26-.21-.53-.31-.81a5.55,5.55,0,0,1-.23-.81,11.68,11.68,0,0,1-.23-1.15,11.68,11.68,0,0,0-.23-1.15c-.16-.77-.3-1.55-.43-2.35s-.24-1.6-.34-2.42a39.88,39.88,0,0,1-.46-6.14c-.15.56-.32,1.1-.5,1.61s-.37,1.05-.58,1.61l-.23.7a22.29,22.29,0,0,0,.12,2.3c.07.77.16,1.51.27,2.23l-.16.08c-.1-.72-.18-1.43-.23-2.12s-.1-1.39-.15-2.11a4.09,4.09,0,0,1-.16.42l-.15.42a2.7,2.7,0,0,1,.08.62,2.54,2.54,0,0,0,.07.61h-.15a4.08,4.08,0,0,1-.08-.92c-.1.26-.2.54-.3.85s-.21.59-.31.84a2.55,2.55,0,0,1-.62,1,13.26,13.26,0,0,1,.31-1.92c.16-.61.33-1.23.54-1.84a4.33,4.33,0,0,1,.31-.93,3.53,3.53,0,0,1,0-.92c0-.31,0-.61,0-.92a15,15,0,0,0-.92,2c-.36.82-.67,1.62-.93,2.42s-.53,1.6-.84,2.42a23.39,23.39,0,0,0-.85,2.38q-.3.62-.57,1.23c-.18.41-.38.82-.58,1.23-.26.56-.49,1.1-.69,1.61s-.44,1.05-.69,1.62-.48,1.3-.66,1.92a16.84,16.84,0,0,1-.65,1.84c-.26.62-.5,1.23-.73,1.84s-.47,1.23-.73,1.85c-.61,1.33-1.19,2.65-1.73,4s-1.09,2.62-1.65,3.95a1,1,0,0,0-.23.39,1,1,0,0,1-.23.38l-.23-.08.61-1.46q.62-1.31,1.08-2.49c.31-.8.66-1.63,1.08-2.5l.53-1.38.54-1.46L631,525.9l1-2.76,1.07-2.85,1.61-4.61,1.54-4.53q.46-1.15.81-2.31c.23-.76.47-1.53.73-2.3l1.23-3.69v-.46h.15l.08-.46a4.65,4.65,0,0,0,.34-.88c.08-.29.17-.55.27-.81l1.39-5.07a4.29,4.29,0,0,0-.39.77c-.1.25-.2.51-.31.76q-1.23,3.62-2.45,7.15c-.82,2.36-1.67,4.71-2.54,7.07-.51,1.38-1,2.75-1.46,4.11s-.92,2.7-1.38,4l-1.54,4-1.54,4.07-1.15,2.69-1.07,2.69-1.08,2.69c-.21.46-.4.92-.58,1.38s-.37.9-.57,1.31-.21.72-.31,1.07a3.42,3.42,0,0,1-.54,1.08,11.82,11.82,0,0,0-1.3,2.65,18.69,18.69,0,0,1-1.16,2.65c-.41.87-.78,1.72-1.11,2.54s-.68,1.64-1,2.45c-.51,1-1,2-1.46,3s-.94,2-1.46,3l-.73,1.5c-.23.49-.47,1-.73,1.5l-1.38,3a3.57,3.57,0,0,0-.46,1.38,5,5,0,0,1-.31.65,7.06,7.06,0,0,0-.31.66,8.94,8.94,0,0,1-.92,1.23,9.15,9.15,0,0,0-.92,1.23,5.32,5.32,0,0,0-.69,1.42,8,8,0,0,1-.62,1.42c-.51.77-1,1.52-1.49,2.26s-1,1.48-1.5,2.19c-.11.21-.19.4-.27.58l-.27.58.23.07,1-1.69c.26-.41.5-.8.73-1.19A14,14,0,0,1,609,572c.46-.66.89-1.33,1.3-2s.85-1.33,1.31-2,.82-1.4,1.23-2,.82-1.32,1.23-2a4.44,4.44,0,0,0,.53-.84c.16-.31.31-.59.47-.85l.23.08-1.08,1.84c-.15.31-.32.62-.5.93s-.37.61-.58.92a12.82,12.82,0,0,0-1,1.88c-.28.64-.6,1.29-1,2a1.3,1.3,0,0,1,.53.08c-.4.66-.81,1.29-1.22,1.88s-.82,1.19-1.23,1.81L607,577.23c-.41.56-.82,1.14-1.23,1.73s-.82,1.16-1.23,1.72a4.75,4.75,0,0,0-.5.58,4.11,4.11,0,0,1-.42.5,2.2,2.2,0,0,1-.69.77l-.47.46a7.11,7.11,0,0,1-.69.61,6.79,6.79,0,0,1-.92.77l-.46.16a2.43,2.43,0,0,1-.42.15,1.73,1.73,0,0,1-.43.08,1.13,1.13,0,0,1-.92-.31,1,1,0,0,1-.34-.35.8.8,0,0,1,0-.57,1.82,1.82,0,0,1,.11-.66,6.57,6.57,0,0,0,.27-.8,11.74,11.74,0,0,0,.5-1.16,1.5,1.5,0,0,1,.58-.84l.69-1c.26-.38.51-.78.77-1.19s.51-.72.77-1.07.51-.75.76-1.16a3,3,0,0,0,.7-1.07l.69-1.16.61-1.07.69-1.15,1.23-2c.21-.36.4-.72.58-1.08s.37-.71.58-1.07l2.38-4.15,2.15-4.3,1.07-2.08a10,10,0,0,0,.5-1.11,8.16,8.16,0,0,1,.5-1l1.39-2.92a12.26,12.26,0,0,0,.65-1.38c.18-.46.4-.95.65-1.46.41-1,.83-1.94,1.27-2.88s.88-1.91,1.35-2.89c1.17-2.76,2.36-5.48,3.57-8.14s2.34-5.38,3.42-8.14l1.61-4.15,1.46-4.08c.56-1.38,1.08-2.76,1.54-4.14l1.38-4.15a20.6,20.6,0,0,0,1.15-3c.26-.87.5-1.75.73-2.65s.48-1.78.73-2.65q.85-2.46,1.65-5t1.66-5c.35-1,.7-2.06,1-3.11s.66-2.09,1-3.11l1.39-4.77a17.38,17.38,0,0,0,.65-1.88c.18-.64.4-1.29.65-2,.11-.25.21-.51.31-.77a3,3,0,0,0,.23-.61A1,1,0,0,1,644,475a.73.73,0,0,1,.35-.31,2.08,2.08,0,0,0,.57-.46,3.64,3.64,0,0,1,.58-.5,6.49,6.49,0,0,1,.81-.35,5.52,5.52,0,0,1,1.53-.38,1.62,1.62,0,0,1,1.16.15,1.07,1.07,0,0,0,.46.31.48.48,0,0,1,.3.38c.11.21.23.49.39.85a1.06,1.06,0,0,1,.08.85c0,.25,0,.48,0,.69a8.53,8.53,0,0,1-.2.92,4.5,4.5,0,0,0-.23.77,4,4,0,0,1-.23.77,3.67,3.67,0,0,1,0,.46.91.91,0,0,0,0,.46q0,.62,0,1.11a2.54,2.54,0,0,1-.43,1.12c-.15.3-.29.61-.42.92s-.24.61-.35.92a4.23,4.23,0,0,1-.15.84,11.45,11.45,0,0,0-.23,1.2c0,.38-.1.78-.15,1.19q-.85,4.53-1.35,8.95a77.6,77.6,0,0,0-.5,8.64c.05.92.1,1.85.16,2.77s.12,1.84.23,2.76.21,1.75.34,2.62.3,1.74.5,2.61a24.28,24.28,0,0,0,2.23,6.61,9.91,9.91,0,0,0,1.77,2.22,2.83,2.83,0,0,0,.92.66,2.19,2.19,0,0,0,.84.19,3.76,3.76,0,0,0,.85-.08,3.59,3.59,0,0,0,.54-.23,2.67,2.67,0,0,0,.69-.31.73.73,0,0,1,.34-.19.64.64,0,0,0,.35-.19,4.89,4.89,0,0,0,.62-.46,1.84,1.84,0,0,1,.34-.27A2.33,2.33,0,0,0,657,523a6.18,6.18,0,0,0,.69-.61c.46-.46.93-1,1.42-1.46a14.77,14.77,0,0,0,1.34-1.62c.47-.56.91-1.14,1.35-1.73s.86-1.19,1.27-1.8l1-1.31q.5-.69,1-1.38c.46-.87.89-1.72,1.3-2.54s.85-1.66,1.31-2.53q1.38-2.46,2.69-4.88t2.46-4.88c.56-1,1.09-2.06,1.57-3.11s1-2.11,1.42-3.19l2.31-4.76a15.23,15.23,0,0,1,.88-1.92c.34-.62.68-1.28,1-2a2.88,2.88,0,0,1,.38-.81c.26-.43.49-.81.7-1.11a7.91,7.91,0,0,1,.76-.69c.26-.21.54-.41.85-.62l.84-.54a2.55,2.55,0,0,1,.93-.3,6.8,6.8,0,0,1,.69-.08,1.24,1.24,0,0,1,.46.15,1.62,1.62,0,0,0,.61.16.62.62,0,0,1,.46.23,7.79,7.79,0,0,1,.62.77,5,5,0,0,0,.46.53,3.77,3.77,0,0,0,.23.54l.15.46a.72.72,0,0,1,0,.46q0,.24,0,.69c0,.31-.06.65-.08,1s0,.7-.08,1a1.89,1.89,0,0,1-.11.62c0,.2-.09.36-.12.46a1.45,1.45,0,0,1-.11.31,3.89,3.89,0,0,1-.31.69,4.71,4.71,0,0,0-.73,1.5c-.13.48-.24,1-.35,1.49a.67.67,0,0,1-.07.31c-.31,1-.63,1.95-1,2.92s-.68,2-1,2.92c-.36,1.18-.72,2.34-1.08,3.5s-.66,2.31-.92,3.49c-.26,1-.49,1.92-.69,2.85s-.38,1.84-.54,2.76a.56.56,0,0,1-.11.31c-.08.1-.17.23-.27.38a2.89,2.89,0,0,1-.19-1.27,9.59,9.59,0,0,1,.15-1.3c.08-.44.14-.86.19-1.27a2.61,2.61,0,0,0-.15-1.23l-.46,1a6.18,6.18,0,0,0-.39,1c-.3,1.18-.55,2.33-.73,3.45a20.21,20.21,0,0,1-.88,3.46c-.1.41-.21.81-.31,1.19a9.27,9.27,0,0,0-.23,1.19c-.1.87-.17,1.74-.19,2.62a11.74,11.74,0,0,1-.42,2.68c-.11.93-.18,1.85-.23,2.77s-.08,1.84-.08,2.77a2.6,2.6,0,0,1-.15.61h-.23a3.57,3.57,0,0,0,0-.46,2.83,2.83,0,0,1,0-.54c0-.25,0-.54,0-.84a9.24,9.24,0,0,1,.11-.92l.16-1.77c.15-2.56.38-5.23.69-8q1.07-6.69,2.53-13.3c.05-.2.1-.39.16-.57s.1-.4.15-.65l.54-2.62c-.11.21-.21.41-.31.62s-.21.43-.31.69c-.46,1.54-.88,3.07-1.26,4.61s-.76,3.07-1.12,4.61a115.14,115.14,0,0,0-1.84,11.68c-.16,1.33-.26,2.64-.31,3.92l-.15,3.84a2.19,2.19,0,0,0,.11.73,1.38,1.38,0,0,1,0,.73,4.21,4.21,0,0,0-.15,2,11.19,11.19,0,0,1,.15,1.88,6,6,0,0,0,.23,1.69l.15.81a5,5,0,0,1,.08.88c.26,1.33.55,2.65.88,4A20.83,20.83,0,0,0,678,544a6.27,6.27,0,0,0,.5.73c.18.23.34.48.5.73a1.74,1.74,0,0,1,.07.89,1.69,1.69,0,0,0,.08.88,2.12,2.12,0,0,0,.5.73,2.22,2.22,0,0,1,.5.73l.61,1.31c.11.25.21.47.31.65s.21.37.31.58a3.91,3.91,0,0,0,.54.46l.15-.16a3.34,3.34,0,0,1-.54-.84,3.68,3.68,0,0,0-.34-.58,2.83,2.83,0,0,1-.35-.65l-.15-.23-.08-.39-.23-.61a3,3,0,0,1-.23-.61A3.12,3.12,0,0,0,680,547c-.1-.41-.23-.84-.38-1.31s-.29-.89-.39-1.3a1.71,1.71,0,0,0-.08-.54,3.59,3.59,0,0,0-.23-.54l.31-.15.69,2.3a4,4,0,0,0,.46,1.12c.21.33.41.68.62,1a2.32,2.32,0,0,1,.31-.2l.23-.11a10.9,10.9,0,0,0,.46,1.07,10.68,10.68,0,0,0,.46,1,13.32,13.32,0,0,0,2.46,3.23A3.79,3.79,0,0,1,685.49,554.25Zm-62-9.45c-.41.82-.78,1.63-1.12,2.42s-.68,1.6-1,2.42-.62,1.4-.93,2-.61,1.32-.92,2-.61,1.4-.92,2.07-.59,1.33-.85,2a14.09,14.09,0,0,0-.69,1.27,5.32,5.32,0,0,1-.84,1.26.47.47,0,0,0,0-.23.28.28,0,0,1,0-.15c.21-.41.39-.8.54-1.15s.33-.75.54-1.16.38-.79.53-1.15.31-.74.47-1.15c.4-.77.79-1.54,1.15-2.31s.74-1.56,1.15-2.38l2.15-4.61c.16-.41.32-.79.5-1.15a11.05,11.05,0,0,0,.5-1.15,10.49,10.49,0,0,0,.5-1.19c.13-.39.27-.78.42-1.2a1.85,1.85,0,0,1,.31-.61l.08-.08h.3c-.1.31-.2.61-.3.89a9.2,9.2,0,0,1-.39.88,4.8,4.8,0,0,1-.46,1.19C623.9,544,623.69,544.39,623.49,544.8Zm-5,14.6c.16-.26.31-.52.46-.81s.31-.57.46-.88l.16.08a6.47,6.47,0,0,1-.39.8l-.46.89Zm3-6.07c.26-.46.5-.92.73-1.38l.73-1.46.08.07c-.21.47-.43.94-.66,1.43s-.47,1-.73,1.42l-1.46,2.84h-.07Zm0-.69c.72-1.54,1.38-3,2-4.46h.15c-.36.77-.7,1.54-1,2.31a22,22,0,0,1-1.11,2.23Zm5.38-12h.07l-.61,1.62h-.08Zm3.22-7.22h.08l-.61,1.38h-.08Zm9.07-25a6.32,6.32,0,0,0,.23-2.15,5.06,5.06,0,0,0-.23.54Zm2,11.3.46,1.61h-.08a4.25,4.25,0,0,1-.23-.77,4.78,4.78,0,0,0-.23-.77Zm2.77,6.91a6.9,6.9,0,0,0,.46.58,2.76,2.76,0,0,1,.38.58l-.08.07-.42-.57-.42-.58ZM676.81,536c-.1-1-.21-2.06-.31-3.11s-.23-2.11-.38-3.19a.74.74,0,0,1,.08-.38l.07-.08s.1-.1.31-.15a6.53,6.53,0,0,0,.15,1.15,9.52,9.52,0,0,0,0,1.69c0,.57.1,1.1.16,1.61s.12,1.06.23,1.62c.15.87.33,1.74.53,2.61s.44,1.74.7,2.61l.3.77a1.51,1.51,0,0,1,.08.85c-.2,0-.31,0-.31-.08a15.82,15.82,0,0,1-1-2.84C677.17,538.09,677,537.07,676.81,536Zm1.46-6.37-.08-1.16h.08l.08,1.08Zm0-5.07.08-1h.07v.92Zm.69,11.83a13.13,13.13,0,0,1-.23-1.42,13.32,13.32,0,0,0-.23-1.43l.15-.07a14.14,14.14,0,0,1,.23,1.46c0,.46.13.95.23,1.46Zm.85,2.07a3.79,3.79,0,0,1-.2-.92,3.77,3.77,0,0,0-.19-.92l-.23-1.85h.16l.23,1.85c0,.25.1.54.15.84a6.31,6.31,0,0,0,.23.93Zm.46,1.92-.16-1.07.16-.08.3,1Z" transform="translate(-313.91 -470.75)"/><path class="cls-1" d="M689.19,538.36l.33-.54c.1-.16.22-.34.34-.55l.06.07a2.6,2.6,0,0,1-.31.48,6.32,6.32,0,0,0-.36.54Zm28.18,7.58a.36.36,0,0,1-.06.33l-.24.46a1.4,1.4,0,0,1-.24.36,1.13,1.13,0,0,0-.25.42q-.24.3-.36.33a.53.53,0,0,0-.24.15.87.87,0,0,1-.45.18,1.92,1.92,0,0,0-.45.12,2.06,2.06,0,0,1-.84.12.6.6,0,0,0-.27-.06.67.67,0,0,1-.34-.12,1.6,1.6,0,0,1-.42-.3,1.3,1.3,0,0,1-.48-.24,5.34,5.34,0,0,1-.54-.3,7.35,7.35,0,0,1-1.23-1.63,8.61,8.61,0,0,1-.82-1.92,7.94,7.94,0,0,1-.48-2.71,16.12,16.12,0,0,1,.12-2l.24-1.93.24-1.44q.12-.72.24-1.38-.42.48-.81,1t-.75,1a6.15,6.15,0,0,0-.72,1c-.2.34-.42.69-.67,1.05a4.22,4.22,0,0,1-.27.36q-.15.18-.33.36a2.62,2.62,0,0,1-.39.42,1.8,1.8,0,0,0-.33.36.66.66,0,0,1-.15.21.86.86,0,0,0-.15.22l-.18.3a2.42,2.42,0,0,0-.21.39,2.42,2.42,0,0,1-.21.39l-.48.72a8.61,8.61,0,0,1-.55.72c-.24.37-.5.74-.78,1.12s-.56.75-.84,1.11a16.78,16.78,0,0,1-2.17,2.35,3.75,3.75,0,0,1-.69.54,6.46,6.46,0,0,0-.75.54l-.42.21-.43.21-.84.31a2.22,2.22,0,0,1-.54.15,2.22,2.22,0,0,0-.54.15,9,9,0,0,1-1.75.18l-.84-.09a3.17,3.17,0,0,1-.78-.15,5.7,5.7,0,0,1-.88-.28,2.33,2.33,0,0,1-.69-.39l-.66-.57a6.1,6.1,0,0,1-.6-.63.54.54,0,0,1-.15-.3.54.54,0,0,0-.15-.3,5.55,5.55,0,0,0-.19-.6,5.52,5.52,0,0,1-.12-1,.48.48,0,0,1,0-.3.74.74,0,0,0,0-.36v-.66q.06-.3.12-.66a2.53,2.53,0,0,1,.25-.73.4.4,0,0,0,0-.33c-.06-.14-.06-.25,0-.33a1.22,1.22,0,0,0,.36-.57,3.71,3.71,0,0,1,.18-.57l.24-.63a1.58,1.58,0,0,1,.36-.58,1.25,1.25,0,0,0,.27-.39,1,1,0,0,1,.33-.39.69.69,0,0,0,.24-.48.49.49,0,0,1,.09-.3,2.25,2.25,0,0,1,.21-.24l.85-.85q.18-.24.33-.48a3.4,3.4,0,0,0,.27-.54.32.32,0,0,1,.12-.15.85.85,0,0,0,.18-.15,2.62,2.62,0,0,1,.39-.42l.51-.42.36-.36.42-.43.21-.21.22-.21a3.35,3.35,0,0,0,.45-.27l.45-.33a1.8,1.8,0,0,0,.36-.33l.36-.39q.18-.18.33-.36l.33-.42a3.84,3.84,0,0,1-.06-.73V530a35,35,0,0,0-4.45,3.67q0-.24.12-.3c1.44-1.32,3-2.63,4.63-3.91a24.54,24.54,0,0,1,4.16-2.59,13.93,13.93,0,0,1,1.74-.84c.61-.24,1.21-.46,1.81-.66s1.27-.38,1.9-.52,1.23-.25,1.83-.33a26,26,0,0,1,2.86-.33,15.76,15.76,0,0,1,2.92.09.8.8,0,0,1,.42.06.35.35,0,0,0,.06.24l.12.12a.91.91,0,0,0,.37.12,3.71,3.71,0,0,0,.57.18,2.21,2.21,0,0,1,.51.18c.48.17.6.49.36,1q-.06.12.12.24a.33.33,0,0,1,.06.48,1,1,0,0,0-.36.45,1.88,1.88,0,0,0-.06.51v.06c-.08.24-.18.51-.3.79h.06l-.12.12q-.12.24-.21.45l-.21.51-.06.12v.06c-.16.32-.3.64-.43,1l-.36,1a4.12,4.12,0,0,0-.15.84,4.12,4.12,0,0,1-.15.84s0,.07-.09.09a.27.27,0,0,0-.15.15.5.5,0,0,1-.24-.39,2.38,2.38,0,0,1,0-.39,1.27,1.27,0,0,0,0-.39.69.69,0,0,0-.21-.39l-.33.33a.84.84,0,0,0-.21.33,5.27,5.27,0,0,0-.24,1,2.4,2.4,0,0,1-.42,1.06,1.84,1.84,0,0,0-.24.72,4.55,4.55,0,0,0-.06.81,3.1,3.1,0,0,1-.13.82,3.62,3.62,0,0,0-.12.87,5.73,5.73,0,0,1-.06.81.12.12,0,0,1,0,.09.12.12,0,0,0,0,.09l-.24.06V539a5.17,5.17,0,0,1,0-.57q0-.27.09-.57c0-.4.07-.8.09-1.18a9.78,9.78,0,0,1,.15-1.23c.08-.68.19-1.37.31-2s.26-1.36.42-2a.47.47,0,0,1,0-.19.36.36,0,0,0,0-.18,1.43,1.43,0,0,1,.06-.39,1.63,1.63,0,0,0,.06-.45,1.71,1.71,0,0,1-.3.36,27.47,27.47,0,0,0-.91,2.89,14.48,14.48,0,0,0-.36,1.81l-.24,1.8c-.08.45-.14.86-.18,1.24a5.72,5.72,0,0,0,0,1.17.21.21,0,0,0,0,.24.17.17,0,0,1,0,.24.55.55,0,0,0-.12.58,1.39,1.39,0,0,1,.12.57,2.23,2.23,0,0,0,.06.54l.12.48a7.76,7.76,0,0,0,.33,1.24,2.41,2.41,0,0,0,.69,1,.55.55,0,0,0,.28.15.52.52,0,0,1,.27.15.27.27,0,0,1,0,.27.27.27,0,0,0,0,.27.37.37,0,0,0,.27.12.37.37,0,0,1,.27.12,1.09,1.09,0,0,1,.27.24,2.25,2.25,0,0,0,.21.24.15.15,0,0,0,.24,0l.18-.12a.35.35,0,0,1-.24-.12.17.17,0,0,0-.12-.06s-.1,0-.18-.12-.17-.4-.27-.6-.21-.4-.33-.6a.24.24,0,0,0,0-.15.24.24,0,0,1,0-.15l.18-.06a2.63,2.63,0,0,0,.3.54.36.36,0,0,0,.21.24.8.8,0,0,1,.27.18,4.23,4.23,0,0,0,.42-.3,1.45,1.45,0,0,1,.18.21l.12.15.24.12a.35.35,0,0,0,.24.06.18.18,0,0,0,.13.06l.18.06s.06,0,.06.06a.66.66,0,0,1,.24.33A1.32,1.32,0,0,0,717.37,545.94Zm-26.61-10.29a3.65,3.65,0,0,0,.39-.45,3.09,3.09,0,0,1,.33-.39l.12.06a2.57,2.57,0,0,0-.48.6l-.42.54a1.39,1.39,0,0,0-.21.27,1.39,1.39,0,0,1-.21.27l-.06-.06.3-.42Zm15.41,4,.27-.51a1.16,1.16,0,0,0,.15-.57q-.12.12-.18.12a.17.17,0,0,0-.12.06,3.92,3.92,0,0,1-.36.42,1.6,1.6,0,0,0-.3.42.45.45,0,0,1-.15.18,1.45,1.45,0,0,0-.21.18l-.24.37c-.21.28-.39.55-.58.81l-.57.81c-.32.44-.63.89-.93,1.36s-.61.91-.93,1.35-.57.65-.85,1-.6.69-1,1.06l-.3.27-.42.33-.9.54a2.63,2.63,0,0,1-.61.36l-.6.24-.84.21-.72.15a4.41,4.41,0,0,1-1.45,0,8.28,8.28,0,0,1-1.26-.21,3.59,3.59,0,0,1-1.15-.51,3.29,3.29,0,0,0-.42-.18l-.24.24a5.49,5.49,0,0,0,1.63.78,3,3,0,0,0,.87.24,7,7,0,0,0,.93.06,2.17,2.17,0,0,0,.45,0,3.23,3.23,0,0,1,.46,0l.54-.09.48-.09.39-.09.33-.09a2.39,2.39,0,0,0,.78-.3l.36-.21.43-.21a2.53,2.53,0,0,0,.66-.48,1.49,1.49,0,0,0,.39-.27l.27-.27a9.72,9.72,0,0,0,1-1l.85-1q.54-.6,1-1.2c.3-.4.59-.81.87-1.21a23.78,23.78,0,0,0,1.57-2.28.11.11,0,0,0,.12-.12l.06-.13.12-.06a.94.94,0,0,0,.18-.24A.94.94,0,0,1,706.17,539.62Zm-13.55,1.45a6.86,6.86,0,0,0-.54,1.47c-.12.5-.22,1-.3,1.42a1.33,1.33,0,0,0,.06.42v.36l.18.72q0,.12.06.12s.08,0,.12.12l.24-.12a.48.48,0,0,1-.06-.21.48.48,0,0,0-.06-.21.53.53,0,0,0-.06-.24.53.53,0,0,1-.06-.24,5.77,5.77,0,0,1,.24-2.29,15.44,15.44,0,0,1,2.59-4.21,24.62,24.62,0,0,1,2.26-2.32c.82-.74,1.66-1.45,2.5-2.14l.54-.33.48-.33.45-.45c.14-.14.31-.33.52-.57a.86.86,0,0,0-.37.06q-1,.66-2,1.35a17.29,17.29,0,0,0-1.9,1.54q-.66.66-1.32,1.29a9.73,9.73,0,0,0-1.21,1.36,2.28,2.28,0,0,0-.48.51q-.18.27-.36.51l-.72,1.08a3.79,3.79,0,0,1-.42.67A2.15,2.15,0,0,0,692.62,541.07Zm-.3-7.23a.94.94,0,0,0-.24.18L692,534l.36-.39a4.59,4.59,0,0,1,.37-.39l.84-.84a5.68,5.68,0,0,1-.6.81C692.79,533.37,692.56,533.6,692.32,533.84Zm10.24-1.44a3.92,3.92,0,0,0-.42.24c-.12.08-.27.16-.42.24a6,6,0,0,0-.55.24,3.15,3.15,0,0,0-.48.3l-.45.36-.39.36a4.59,4.59,0,0,1-.39.37l-.39.36a6.28,6.28,0,0,1-.79.66,3.82,3.82,0,0,0-.72.66c-.72.68-1.38,1.37-2,2a13.08,13.08,0,0,0-1.56,2.17l-.3.54-.36.6a1.05,1.05,0,0,1-.12.3l-.06.24q-.06.18-.12.33t-.12.27a4.61,4.61,0,0,0-.15,1.72,4.75,4.75,0,0,0,.39,1.41.24.24,0,0,1,.06.18,2.86,2.86,0,0,0,.57.18,5.43,5.43,0,0,1,.57.19,2.79,2.79,0,0,0,1,.12h1q.12.06.24-.12c.08-.13.14-.16.18-.13a.4.4,0,0,0,.48.06l.15-.09a.24.24,0,0,0,.15-.09l.24-.24a.94.94,0,0,1,.24-.18.35.35,0,0,1,.24-.12.87.87,0,0,0,.31-.18.69.69,0,0,1,.3-.18q.24-.12.18-.3a.27.27,0,0,1,.09-.24,1.45,1.45,0,0,0,.21-.18L700,544a1.1,1.1,0,0,0,.39-.76.15.15,0,0,1,.09-.15.27.27,0,0,0,.15-.15,5.3,5.3,0,0,0,.54-.63c.16-.22.34-.45.55-.69,0-.08.07-.15.09-.21a.41.41,0,0,1,.15-.21,4,4,0,0,0,.84-1.21,1.38,1.38,0,0,0,.18-.39,1.38,1.38,0,0,1,.18-.39,2.07,2.07,0,0,1-.39-.54l-.39-.78a1.14,1.14,0,0,0-.21.3,1.14,1.14,0,0,1-.21.3.77.77,0,0,0-.18.21,2.59,2.59,0,0,1-.18.21,2.77,2.77,0,0,1-.31.45,4.12,4.12,0,0,0-.3.39l-.57.82-.51.75q-.18-.18-.06-.18.3-.42.6-.81c.2-.27.4-.56.6-.88a3.35,3.35,0,0,1,.27-.45l.34-.51a4.22,4.22,0,0,1,.36-.57,4.12,4.12,0,0,0,.3-.45,6.27,6.27,0,0,0,.48-.67,5.46,5.46,0,0,1,.42-.6q.12-.18.24-.33l.24-.33.48-.66,1.72-2.2c.58-.74,1.21-1.48,1.9-2.2a4.09,4.09,0,0,0,.3-.33,4.09,4.09,0,0,1,.3-.33l-1.72.51a14,14,0,0,0-1.77.69,3.89,3.89,0,0,0-.61.31l-.6.36a2.35,2.35,0,0,0-.57.33A5.72,5.72,0,0,1,702.56,532.4Zm-4.7,9.93s.1,0,.18-.12l.06.12-.15,0-.15,0Zm.24-.36a1.71,1.71,0,0,0,.36-.3,2,2,0,0,0,.37-.3l.12.06a.28.28,0,0,0-.15.12l-.09.12a.31.31,0,0,0-.16.12.47.47,0,0,1-.09.12.94.94,0,0,0-.24.18Zm1.21-1.14-.12.12-.06-.06a4.51,4.51,0,0,1,.42-.48,5.4,5.4,0,0,0,.48-.55A3.63,3.63,0,0,1,699.31,540.83ZM714,538.72a2.77,2.77,0,0,0,.24,1,4.16,4.16,0,0,0,.21.76l.27.69a.33.33,0,0,1,.06.48h-.18a1.91,1.91,0,0,1-.45-.72,9,9,0,0,1-.27-.91q-.06-.48-.09-1a6.41,6.41,0,0,0-.16-1v-.12l.13-.06h.06l.12-.06a.24.24,0,0,0,.06.18s0,.1,0,.18Zm.9-.42h-.06V538h.06Zm.42-.42h-.06v-.3Zm.18,2q-.06-.24-.18-.84h.12q.06.24.09.42t.09.42Zm.54.49a1.54,1.54,0,0,1-.15-.49,4,4,0,0,0-.09-.48l.06-.06a1.47,1.47,0,0,1,.12.54,1.11,1.11,0,0,0,.12.49Zm.12.48-.06-.24.18-.06.12.24Z" transform="translate(-313.91 -470.75)"/><path class="cls-1" d="M748,528.49a2.38,2.38,0,0,1-.3,1,1.34,1.34,0,0,1-.27.45,5.75,5.75,0,0,0-.39.45,1.25,1.25,0,0,1-.82.33l-.81,0a.6.6,0,0,1-.57-.24,1.77,1.77,0,0,0-.39-.36.17.17,0,0,0-.12-.06.17.17,0,0,1-.12-.06.94.94,0,0,0-.24-.18.69.69,0,0,1-.24-.18.75.75,0,0,0-.31-.24v-.12l-.24-.12a7.69,7.69,0,0,1-.69-.39,7.69,7.69,0,0,0-.69-.39c-.8-.53-1.59-1-2.35-1.45a2.66,2.66,0,0,0-.57-.36l-.57-.24-.57-.21a.94.94,0,0,0-.52,0h-.48a.12.12,0,0,0-.09,0,.12.12,0,0,1-.09,0,.35.35,0,0,0-.24.12,4.19,4.19,0,0,0-.54.48,6.17,6.17,0,0,0-.66.63,7,7,0,0,0-.73.94q-.12.24-.27.48a5.83,5.83,0,0,1-.39.54,2.1,2.1,0,0,1-.24.6l-.18.3-.12.36c-.44,1-.85,2-1.23,2.89s-.74,1.85-1.06,2.77a2.5,2.5,0,0,0-.48,1,4.25,4.25,0,0,0-.24.93,8.44,8.44,0,0,1-.18.93c-.2.56-.4,1.15-.6,1.75s-.4,1.18-.6,1.74c-.12.4-.24.79-.37,1.15s-.24.74-.36,1.14-.28,1-.48,1.69a8.76,8.76,0,0,1-.48,1.14V548a2.43,2.43,0,0,1-.45.78,2.51,2.51,0,0,1-.57.48,2.14,2.14,0,0,1-.42.22,4.18,4.18,0,0,0-.55.21.75.75,0,0,1-.39.09,1.33,1.33,0,0,0-.51.09,1.38,1.38,0,0,1-.48-.12,5.9,5.9,0,0,1-.63-.3,5.27,5.27,0,0,1-.64-.4,3.41,3.41,0,0,1-.42-.33q-.18-.3-.12-.45a.32.32,0,0,0,0-.27l-.06-.12v-.12a2.19,2.19,0,0,1,0-.36.49.49,0,0,0-.09-.36.71.71,0,0,1,0-.79,1.78,1.78,0,0,0,.48-1,2.21,2.21,0,0,0-.24-.39q-.12-.15.06-.45a.53.53,0,0,0-.06-.24.2.2,0,0,1,.06-.24q.18-.18,0-.24t-.15-.12a.1.1,0,0,0,0-.12,3.81,3.81,0,0,0,.18-.58.51.51,0,0,0-.24-.51q-.18,0,0-.18a5.17,5.17,0,0,1,0-.57,5.17,5.17,0,0,0,0-.57q.06-.12,0-.15s0-.05,0-.09a2.91,2.91,0,0,0,.06-1l-.12-.21a2,2,0,0,1-.12-.21,3.73,3.73,0,0,0-.72-.06,7.28,7.28,0,0,1-.9-.06c0,.44,0,.87,0,1.3s0,.85-.09,1.29h-.12v-.12q0-.66,0-1.32a5.92,5.92,0,0,0-.09-1.33,14.08,14.08,0,0,1,.18-2.29,14.33,14.33,0,0,1,.36-1.8,11,11,0,0,1,.66-1.81l.24-.72.24-.72a7.6,7.6,0,0,0,.21-.76,3.36,3.36,0,0,1,.27-.75.24.24,0,0,1,.06-.18q.36-.12.39-.18l.09-.18a2.81,2.81,0,0,0,.25-.54l.12-.24a.94.94,0,0,1,.18-.24,2.23,2.23,0,0,1,.48-.55l.54-.42a1.57,1.57,0,0,1,.33-.24,4.13,4.13,0,0,1,.51-.24,3,3,0,0,0,.67-.06,1.13,1.13,0,0,0,.36-.06h.24a1.33,1.33,0,0,1,.42.06l.51.18a.57.57,0,0,1,.33.24,2.54,2.54,0,0,1,.24.79,1.92,1.92,0,0,1,0,1l-.06.06a.42.42,0,0,1,0,.18.42.42,0,0,0,0,.18.54.54,0,0,0-.15.3.54.54,0,0,1-.15.3,1,1,0,0,0-.12.45c0,.14-.16.3-.48.46l.06.06a2.48,2.48,0,0,0,0,.33.57.57,0,0,1,0,.33,2.43,2.43,0,0,1-.27.51,2.43,2.43,0,0,0-.27.51,3.18,3.18,0,0,0-.18.66,5.18,5.18,0,0,1-.18.73,2.28,2.28,0,0,0-.16.66,4.09,4.09,0,0,1-.15.78,3.53,3.53,0,0,0-.12.84c.12-.28.24-.55.34-.81s.19-.53.27-.81a.45.45,0,0,1,.15-.18,1.45,1.45,0,0,0,.21-.18,2.17,2.17,0,0,1,0,.72,3.88,3.88,0,0,1-.18.69,4,4,0,0,0-.18.66,1.43,1.43,0,0,0,.06.7,3.13,3.13,0,0,0,.72-1q.42-.9.75-1.77a9.81,9.81,0,0,1,.81-1.66,5.59,5.59,0,0,0,.43-.6,4.2,4.2,0,0,0,.3-.6,8.46,8.46,0,0,0,.48-1.36,4,4,0,0,1,.66-1.35,12.73,12.73,0,0,0,.78-1.42,6.78,6.78,0,0,1,1-1.47.47.47,0,0,1,.12-.09.47.47,0,0,0,.12-.09l.18.12a3.65,3.65,0,0,0-.42.54,4.27,4.27,0,0,0-.55.81c-.16.3-.34.62-.54.94a5,5,0,0,0-.48,1,8.65,8.65,0,0,1-.42,1l-.78,2c-.48,1.12-.93,2.24-1.33,3.34s-.76,2.2-1.08,3.28a2.77,2.77,0,0,0-.09.33,2.77,2.77,0,0,1-.09.33c-.08.32-.15.63-.21.91s-.13.58-.21.9h.06l.15-.3a1.14,1.14,0,0,1,.21-.3c.28-.85.57-1.69.87-2.53s.63-1.69,1-2.53.75-1.93,1.15-2.89l1.2-2.89a13.33,13.33,0,0,0,.91-1.81l.57-.93q.27-.45.57-.87a.56.56,0,0,0,.3-.36.65.65,0,0,1,.24-.3l.9-.73.3-.36a1,1,0,0,1,.25-.18l.3-.18.78-.42a3.53,3.53,0,0,1,.9-.36,5,5,0,0,1,2.35.18,7.18,7.18,0,0,1,1,.33c.34.14.7.27,1.06.39a2.1,2.1,0,0,0,.51.06.43.43,0,0,1,.39.18.54.54,0,0,1,.36.36.88.88,0,0,0,.24.43.64.64,0,0,0,.39.15.73.73,0,0,1,.45.21,2.3,2.3,0,0,1,.64.45,3,3,0,0,0,.57.45.52.52,0,0,0,.36.18l.12-.12-.42-.36a1.14,1.14,0,0,0-.3-.21.77.77,0,0,1-.3-.27c-.33-.32-.67-.63-1-.94l-1.08-.93a.94.94,0,0,0-.24-.18.94.94,0,0,1-.24-.18l.18-.18.51.36.57.36a1.53,1.53,0,0,0,.57.39,2.06,2.06,0,0,1,.58.33,2.91,2.91,0,0,1,.42-.36,4.65,4.65,0,0,0,.9.79q.24.24.45.42l.45.36.24.12.07.12h.06l.18.12a.23.23,0,0,1,.06.12.17.17,0,0,0,.06.12l.12.12s.1,0,.18.12a.16.16,0,0,1,.18.18,2.58,2.58,0,0,1,.39.69A1.94,1.94,0,0,1,748,528.49Zm-28,13.78a1.14,1.14,0,0,1,.06.84v.12h-.12a1,1,0,0,1,0-.48A2,2,0,0,0,720,542.27Zm.18,2.05v.3l-.12-.06a1.67,1.67,0,0,1,0-.9l.12-.06a.42.42,0,0,1,0,.18.42.42,0,0,0,0,.18Zm.06.6a1.39,1.39,0,0,0,0,.27,1.39,1.39,0,0,1,0,.27l-.06.06a.52.52,0,0,1-.06-.54Zm4.15-7.16q-.06.54-.09,1.08t0,1q.12-.36.27-.75l.33-.87q.12-.36-.3-.66Zm5.84-11a1.14,1.14,0,0,0-.21.3l-.15.3v-.06a2.33,2.33,0,0,1,.12-.3.94.94,0,0,1,.18-.24Zm2.11-2.59a1.71,1.71,0,0,1-.36.3h-.06l.36-.36.3-.3Zm.78,1H733a.14.14,0,0,1-.12-.06l.24-.36a2,2,0,0,1,.24-.3.94.94,0,0,1,.24-.18.94.94,0,0,0,.24-.18.94.94,0,0,1,.24-.18.94.94,0,0,0,.24-.18l1.06-.63a5.47,5.47,0,0,1,1.17-.51l.48-.06a.53.53,0,0,1,.24-.06.53.53,0,0,0,.24-.06h1a3.19,3.19,0,0,1,.45,0l.51.09a6.23,6.23,0,0,0,.78.24,1.3,1.3,0,0,0,.43.18.54.54,0,0,1,.36.3q-.18.18-.24.18a4.08,4.08,0,0,0-.43-.18l-.42-.12-.42-.12-.54-.12a4.7,4.7,0,0,0-2-.06,5.09,5.09,0,0,0-2.1.78,5.46,5.46,0,0,0-.88.66,7.65,7.65,0,0,0-.69.72l-.12.09-.12.09Zm3.85-3.79a6.07,6.07,0,0,0-1.44.48l-.06-.12.78-.24a5.55,5.55,0,0,1,.66-.18,2.77,2.77,0,0,1,.76-.12h.69l-.06.06-.67,0A5.86,5.86,0,0,0,736.93,521.38Zm3.37-.12a7.42,7.42,0,0,0-1.56-.33,5.62,5.62,0,0,0-1.87.15l.06-.12a6,6,0,0,1,3.37.24Zm1.33.48-.3-.12-.36-.12.06-.18.39.12.33.12Z" transform="translate(-313.91 -470.75)"/><path class="cls-1" d="M759.15,546.85a11,11,0,0,0,.75-.82q.33-.39.63-.81a3.15,3.15,0,0,0,.3-.48,1.6,1.6,0,0,1,.3-.42,3.1,3.1,0,0,0,.9-1.12,10.86,10.86,0,0,1,.67-1.17,12.47,12.47,0,0,0,.66-1.11c.2-.38.4-.76.6-1.12.52-.88,1-1.77,1.48-2.68a21.56,21.56,0,0,0,1.17-2.73,2.3,2.3,0,0,0,.15-.64,1.47,1.47,0,0,1,.21-.63,1.71,1.71,0,0,1,.39-.57,3,3,0,0,0,.45-.57,2.65,2.65,0,0,0,.16-.63,1.76,1.76,0,0,1,.15-.64q.6-1.08,1.14-2.1a.6.6,0,0,0,.06-.27.67.67,0,0,1,.06-.28h-.18l-.36.79-.21.54a3.38,3.38,0,0,1-.27.54c-.33.6-.67,1.2-1,1.81s-.7,1.2-1,1.8c-.16.28-.32.54-.48.79l-.12-.06c.16-.29.3-.56.42-.82a5,5,0,0,1,.48-.81,2.86,2.86,0,0,0,.39-.9,3,3,0,0,1,.33-.85,1,1,0,0,0-.27-.06.48.48,0,0,1-.21-.06,4.5,4.5,0,0,0,.48-.84,8.22,8.22,0,0,1,.42-.84c.24-.56.49-1.11.76-1.63s.51-1.06.75-1.62a2.62,2.62,0,0,1,.78-1l.21-.21a.8.8,0,0,0,.15-.21,1.32,1.32,0,0,1,.39-.24l.4-.18a.53.53,0,0,1,.33-.09.91.91,0,0,0,.27,0,1.6,1.6,0,0,1,.72.18l.3.12q.18.06.18.18l.15.27a.27.27,0,0,1,0,.27.69.69,0,0,0,0,.25.42.42,0,0,1,0,.18,3,3,0,0,0-.15.42,3.38,3.38,0,0,1-.21.54,2.63,2.63,0,0,0-.18.45,2.63,2.63,0,0,1-.18.45,3.4,3.4,0,0,1-.27.54,3.52,3.52,0,0,0-.27.55q-.18.54-.39,1.08t-.45,1.08c-.61,1.33-1.21,2.66-1.81,4s-1.23,2.67-1.87,4a60,60,0,0,1-3.07,5.36q-.54.78-1.08,1.5c-.36.48-.76,1-1.2,1.57a5.5,5.5,0,0,1-.37.42l-.42.42a4.19,4.19,0,0,1-.48.54l-.36.48-.84.49a1.38,1.38,0,0,0-.36.18.16.16,0,0,0-.12.06h-.06l-.12.06h-.07l-.36.18a.66.66,0,0,0-.21,0,.66.66,0,0,1-.21,0,3.19,3.19,0,0,1-1.38.06,4.44,4.44,0,0,1-1.06-.3,3,3,0,0,1-.69-.43,2.44,2.44,0,0,1-.54-.6,1.85,1.85,0,0,1-.43-.54,3.57,3.57,0,0,1-.55-1,19.08,19.08,0,0,1-.74-1.93c-.32-1.32-.57-2.57-.73-3.73a3.37,3.37,0,0,1-.06-.66,4.59,4.59,0,0,0-.06-.73c-.09-.4-.17-.78-.25-1.14s-.16-.76-.25-1.2c0-.69-.07-1.38-.09-2.08s-.07-1.42-.15-2.14l-.24-2.71q0-.54,0-1t0-1.05a4,4,0,0,1,0-.85,4.62,4.62,0,0,0,0-.9,2.32,2.32,0,0,1,.39-.69q.39-.57.57-.81c.12-.16.24-.34.36-.52a1,1,0,0,1,.54-.39l.49-.15.48-.15a5.1,5.1,0,0,0,.63-.12.8.8,0,0,1,.51.06,1.45,1.45,0,0,0,.39.12,1.12,1.12,0,0,1,.39.18,2.38,2.38,0,0,0,.49.24.76.76,0,0,1,.36.36c.08.21.18.48.3.82s.2.59.24.75a.52.52,0,0,1-.06.54,3,3,0,0,0-.09.93,4.15,4.15,0,0,0,.15.88q.06.12,0,.18.06.9.06,1.8v1.81l.06,2.17v1.14a1.3,1.3,0,0,0,0,.48,4.39,4.39,0,0,1,0,.54,8.13,8.13,0,0,0,.15,1.6q.15.75.27,1.53a.21.21,0,0,1,0,.22,1.18,1.18,0,0,0-.12.27,1.14,1.14,0,0,1-.48-.61,4.74,4.74,0,0,1-.18-.72q-.06-.36-.15-.72a1.09,1.09,0,0,0-.39-.6,4,4,0,0,0-.19.69,3.52,3.52,0,0,0-.06.63c.08.69.19,1.35.31,2a15.69,15.69,0,0,1,.24,2q.12.84.24,1.32a3,3,0,0,0,.33.6l.39.54a2.25,2.25,0,0,0,.24.21.7.7,0,0,1,.18.21l.36.13h.12s0-.07,0-.07,0,0,0-.06a6.86,6.86,0,0,0,1.15-1.2s.1-.12.3-.24l.06.12a.8.8,0,0,0-.18.27.8.8,0,0,1-.18.27,4.79,4.79,0,0,1-.46.51l-.39.4a.85.85,0,0,1-.18.15l-.18.09.12-.06a.05.05,0,0,1-.06.06.24.24,0,0,1-.18.06h-.06a.17.17,0,0,1-.12.06h-.06l.12-.06a.26.26,0,0,1-.36-.06,1.49,1.49,0,0,1-.39-.27L757,546a9.34,9.34,0,0,1-.83-1.74,14.87,14.87,0,0,1-.5-1.78c-.13-.62-.28-1.25-.43-1.89l-.24-1.93c-.07-.64-.15-1.3-.23-2V536a10.5,10.5,0,0,1-.18-1.05,10.68,10.68,0,0,0-.18-1.06h-.06c0,.16-.07.3-.09.43a2.19,2.19,0,0,0,0,.36l.06,1.5a4.75,4.75,0,0,1,.06.78v.79q.06.78.12,1.53c0,.5.1,1,.18,1.54.2,1.2.44,2.32.72,3.37q.12.42.27.81t.27.81c.16.24.33.48.49.73a3.09,3.09,0,0,0,.6.66.94.94,0,0,0,.36.24.66.66,0,0,1,.21,0,.66.66,0,0,0,.21,0h.48l.27-.12.27-.12Zm-1.33-1.63-.18.18h-.06q.18-.18.18-.24Zm.06,1.27a.05.05,0,0,1-.06.06h.12s.06,0,.06,0,0,0,.06,0l.12-.06Zm.6,0s0,0,0,.06h-.06Zm.91-3.19h-.06l.42-.67h.06Zm1.5-.31a1.5,1.5,0,0,1,.33-.51,1.5,1.5,0,0,0,.33-.51l.64-1c.22-.36.43-.73.63-1.09q.48-.9.9-1.8c.28-.6.58-1.21.9-1.81a2.48,2.48,0,0,1,.67-1.08.17.17,0,0,0,.06.12.05.05,0,0,0,.06.06,28.42,28.42,0,0,1-2.08,4.12c-.82,1.35-1.64,2.7-2.44,4.07a.24.24,0,0,1-.18.24h-.06l-.12-.06Zm1.57-4.69c-.2.32-.39.64-.55,1s-.34.64-.54,1l-.12-.06q.3-.48.57-1c.18-.32.37-.64.58-1Zm.54-1.57c-.48.77-1,1.57-1.39,2.41l-.06-.06.7-1.17c.22-.38.45-.79.69-1.24Zm.36-.66-.18-.06.36-.72.18.06Z" transform="translate(-313.91 -470.75)"/><path class="cls-1" d="M771.43,544.08h.06l-.18.54h-.12Zm.24-.72a.42.42,0,0,1,0,.18.27.27,0,0,0,0,.12l-.18-.06.36-.85h.12l-.06.3Zm.3-1.15a.17.17,0,0,1-.06.12l-.06-.06.36-.9A1.14,1.14,0,0,1,772,542.21Zm3.55,6.74a.82.82,0,0,1-.18.49,2,2,0,0,1-.48.3,2,2,0,0,0-.48.3.21.21,0,0,1-.28,0,.63.63,0,0,0-.33-.09,1.48,1.48,0,0,1-.6-.24,3.81,3.81,0,0,1-.3-.61,2,2,0,0,1-.18-.54.84.84,0,0,0-.06-.36,1.43,1.43,0,0,0-.06-.39.46.46,0,0,1,0-.33,6.88,6.88,0,0,0,.06-.84,1.65,1.65,0,0,1,.24-.79.2.2,0,0,0-.09-.18q-.09-.06.09-.18a.5.5,0,0,0,.15-.63.6.6,0,0,1,.15-.69.35.35,0,0,0,.12-.24q0-.12.18-.24a.15.15,0,0,0,0-.24q-.12-.12-.06-.18a.18.18,0,0,0,.06-.13l.33-.57a.54.54,0,0,0,0-.57q0-.12.06-.12s.06,0,.06-.12l.21-.54c.07-.16.13-.34.22-.54a.24.24,0,0,0,0-.15s0-.07,0-.15a.87.87,0,0,0,.27-.49,4,4,0,0,1,.09-.48,1.82,1.82,0,0,1-.06-.54,4.82,4.82,0,0,0-.67-.21l-.84-.21-.33,1.23c-.1.39-.23.8-.39,1.24q-.18-.12-.12-.18a11.88,11.88,0,0,0,.39-1.3q.15-.63.27-1.29a9.38,9.38,0,0,1,.18-1.06q.12-.51.3-1a28.24,28.24,0,0,1,1.15-3.19,1.87,1.87,0,0,0,.24-.63l.12-.63.24-1.15s0-.06,0-.06,0,0,0-.06a.91.91,0,0,1,.09-.33,1,1,0,0,0,.09-.39,2.77,2.77,0,0,0,.09-.33,1.66,1.66,0,0,1,.15-.39c.08-.08.27-.31.57-.7a5.93,5.93,0,0,1,.81-.87,2.61,2.61,0,0,0,.64-.39,1.49,1.49,0,0,1,.39-.27,3.8,3.8,0,0,1,1.08-.18l.51,0a.66.66,0,0,1,.45.09,1.13,1.13,0,0,1,.43.39,1.66,1.66,0,0,1,.24.51,2.6,2.6,0,0,0,.15.51,1.22,1.22,0,0,1,.09.46l-.06.06a.24.24,0,0,1-.06.18.4.4,0,0,0-.06.36.55.55,0,0,1-.06.42,1,1,0,0,0-.06.57q.06.27-.42.57l.12.06a2.58,2.58,0,0,0,0,.42.78.78,0,0,1,0,.37,1.71,1.71,0,0,1-.25.6,1.89,1.89,0,0,0-.24.6,15.75,15.75,0,0,0-.51,1.56c-.14.53-.29,1-.45,1.57a3.12,3.12,0,0,0-.15.75,4.32,4.32,0,0,1-.15.82,1.08,1.08,0,0,0-.18.54q-.36.48-.3.66a1.68,1.68,0,0,0-.12.63,3.21,3.21,0,0,1-.06.63c-.08.2-.15.39-.21.58a4.74,4.74,0,0,0-.15.57l-1,3.25a7.49,7.49,0,0,1-.27.87,3.7,3.7,0,0,0-.21.87c-.08.53-.15,1-.21,1.51s-.13,1-.21,1.44Zm2.11-11.31q-.24.18-.24.12c-.16.44-.3.88-.43,1.32s-.26.88-.42,1.33-.17.71-.27,1.05-.19.67-.27,1a4.56,4.56,0,0,0-.18.75,4.44,4.44,0,0,1-.18.76l-.36.9-.12,1a7.71,7.71,0,0,1-.18,1,1.68,1.68,0,0,0-.12.63,4.2,4.2,0,0,1-.06.69s0,.1.06.18h.24a2.77,2.77,0,0,1,0-.39,2.77,2.77,0,0,0,0-.39q.06-.48.09-.9a5.38,5.38,0,0,1,.15-.91q.3-.78.54-1.53c.16-.5.32-1,.48-1.54s.4-1.25.61-1.83a13,13,0,0,0,.48-1.84q.12-.3.24-.63A.88.88,0,0,0,777.63,537.64Zm.42-12.83a.17.17,0,0,1-.06-.12.17.17,0,0,0-.06-.12,4.34,4.34,0,0,0-.18-.63q-.12-.33-.24-.63a.42.42,0,0,0,0-.18.42.42,0,0,1,0-.18l-.12-.06h-.4s0,0,0-.06a1.69,1.69,0,0,1-.06-.39.41.41,0,0,0-.12-.28.16.16,0,0,0-.06-.15s0-.07,0-.15a.58.58,0,0,1-.06-.42q-.06-.12.09-.15a.41.41,0,0,0,.21-.09A.21.21,0,0,1,777,521a.18.18,0,0,1-.13-.06.05.05,0,0,1-.06-.06,1.69,1.69,0,0,0,.25-.36.21.21,0,0,1,.06-.18,1.63,1.63,0,0,1,.06-.45,1.36,1.36,0,0,1,.12-.33v-.06l.12-.37a1.56,1.56,0,0,1,.24-.42.82.82,0,0,1,.18-.33l.36-.27a1.39,1.39,0,0,0,.3-.18,5.46,5.46,0,0,1,.54-.36,1.19,1.19,0,0,1,.48-.27l.67-.15.6-.15a4,4,0,0,0,.54-.15l.51-.15a2.06,2.06,0,0,1,.39,0,3.21,3.21,0,0,0,.63.06c.22,0,.34,0,.34.12a.47.47,0,0,1,.06.3l-.13.36c0,.12-.08.24-.12.36a.62.62,0,0,0-.06.36,3.71,3.71,0,0,0-.18.57,3.81,3.81,0,0,1-.18.58.17.17,0,0,0,.06.12.17.17,0,0,1,.06.12,2,2,0,0,1-.12.21.37.37,0,0,0-.06.21,4.47,4.47,0,0,0-.09.45.78.78,0,0,1-.33.45,1,1,0,0,0-.33.51,4.47,4.47,0,0,1-.09.45,1.06,1.06,0,0,0-.18.27.75.75,0,0,1-.18.28.14.14,0,0,1-.09.15.38.38,0,0,0-.15.09,1,1,0,0,1,0,.69.7.7,0,0,0,.06.63.59.59,0,0,1,.15.21.27.27,0,0,0,.15.15,1.05,1.05,0,0,0,.12.3.67.67,0,0,0,.3.06H782s-.06.11-.18.21a1.28,1.28,0,0,1-.3.21l-.36.25a.74.74,0,0,1-.42.12,1.07,1.07,0,0,1-.27.09,1.07,1.07,0,0,0-.27.09,1.77,1.77,0,0,0-.43.06.66.66,0,0,1-.21,0,.27.27,0,0,0-.21,0,.8.8,0,0,1-.48-.18.94.94,0,0,1-.24-.18.83.83,0,0,1-.18-.25.94.94,0,0,0-.24-.18A.19.19,0,0,1,778.05,524.81Zm0-2.71q.18-.12.12-.12a.46.46,0,0,1-.18-.06c-.32.09-.42.13-.3.15A1.46,1.46,0,0,0,778.05,522.1Zm.12.61a.49.49,0,0,1,.36.12q.06.24.18.6a.61.61,0,0,1,.12.33.93.93,0,0,0,.12.39,1.39,1.39,0,0,1,.21.27,1.39,1.39,0,0,0,.21.27,1.85,1.85,0,0,0,.73,0l.12-.12a.67.67,0,0,1-.19-.33,1.38,1.38,0,0,0-.18-.39q-.06-.18-.18-.66v-.84A1.82,1.82,0,0,1,780,521a.17.17,0,0,0-.06-.12s0-.06,0-.06l-.51.06q-.3.12-.3.15a.53.53,0,0,1-.06.15,1.4,1.4,0,0,0-.24.36.6.6,0,0,0-.06.27.37.37,0,0,1-.12.27.39.39,0,0,0-.12.25q-.12.12.06.18Q778.53,522.65,778.17,522.71Z" transform="translate(-313.91 -470.75)"/></svg>